        <svg
          width="137"
          height="110"
          viewBox="0 0 137 110"
          fill="none"
          xmlns="http://www.w3.org/2000/svg"
        >
          <path
            d="M29.8596 42.9397V51.3531H40.486V54.064H29.8596V62.7312H41.7378V65.4421H26.0505V40.2354H41.7378V42.9463H29.8596V42.9397Z"
            fill="black"
          >
</path>
          <path
            d="M50.4837 62.7715H60.6929V65.4424H46.6746V40.269H50.4837V62.7648V62.7715Z"
            fill="black"
          >
</path>
          <path
            d="M67.7239 40.269V65.4424H63.9148V40.269H67.7239Z"
            fill="black"
          >
</path>
          <path
            d="M91.3161 40.269V42.94H83.3681V65.4358H79.5591V42.94H71.5707V40.269H91.3161Z"
            fill="black"
          >
</path>
          <path
            d="M98.9707 42.9397V51.3531H109.597V54.064H98.9707V62.7312H110.849V65.4421H95.1616V40.2354H110.849V42.9463H98.9707V42.9397Z"
            fill="black"
          >
</path>
          <path
            d="M29.8596 42.9397V51.3531H40.486V54.064H29.8596V62.7312H41.7378V65.4421H26.0505V40.2354H41.7378V42.9463H29.8596V42.9397Z"
            fill="url(#paint0_linear_1735_974)"
          >
</path>
          <path
            d="M50.4837 62.7715H60.6929V65.4424H46.6746V40.269H50.4837V62.7648V62.7715Z"
            fill="url(#paint1_linear_1735_974)"
          >
</path>
          <path
            d="M67.7239 40.269V65.4424H63.9148V40.269H67.7239Z"
            fill="url(#paint2_linear_1735_974)"
          >
</path>
          <path
            d="M91.3161 40.269V42.94H83.3681V65.4358H79.5591V42.94H71.5707V40.269H91.3161Z"
            fill="url(#paint3_linear_1735_974)"
          >
</path>
          <path
            d="M98.9707 42.9397V51.3531H109.597V54.064H98.9707V62.7312H110.849V65.4421H95.1616V40.2354H110.849V42.9463H98.9707V42.9397Z"
            fill="url(#paint4_linear_1735_974)"
          >
</path>
          <path
            d="M29.8596 42.9397V51.3531H40.486V54.064H29.8596V62.7312H41.7378V65.4421H26.0505V40.2354H41.7378V42.9463H29.8596V42.9397Z"
            stroke="url(#paint5_linear_1735_974)"
            stroke-width="1.3533"
            stroke-miterlimit="10"
          >
</path>
          <path
            d="M50.4837 62.7715H60.6929V65.4424H46.6746V40.269H50.4837V62.7648V62.7715Z"
            stroke="url(#paint6_linear_1735_974)"
            stroke-width="1.3533"
            stroke-miterlimit="10"
          >
</path>
          <path
            d="M67.7239 40.269V65.4424H63.9148V40.269H67.7239Z"
            stroke="url(#paint7_linear_1735_974)"
            stroke-width="1.3533"
            stroke-miterlimit="10"
          >
</path>
          <path
            d="M91.3161 40.269V42.94H83.3681V65.4358H79.5591V42.94H71.5707V40.269H91.3161Z"
            stroke="url(#paint8_linear_1735_974)"
            stroke-width="1.3533"
            stroke-miterlimit="10"
          >
</path>
          <path
            d="M98.9707 42.9397V51.3531H109.597V54.064H98.9707V62.7312H110.849V65.4421H95.1616V40.2354H110.849V42.9463H98.9707V42.9397Z"
            stroke="url(#paint9_linear_1735_974)"
            stroke-width="1.3533"
            stroke-miterlimit="10"
          >
</path>
          <path
            d="M107.033 100.854C107.033 100.854 106.743 100.921 106.238 101.028C105.727 101.115 105 101.228 104.132 101.342C103.257 101.442 102.241 101.502 101.164 101.522C100.081 101.495 98.9433 101.475 97.8127 101.302C96.6889 101.175 95.5784 100.901 94.569 100.607C93.5595 100.287 92.6375 99.8794 91.8905 99.452C90.3763 98.5105 89.535 97.4489 89.7369 96.3137C92.4962 96.5341 94.8718 96.8279 96.9581 97.2485C97.4763 97.3487 97.981 97.4689 98.4723 97.5891C98.9568 97.6892 99.4212 97.8028 99.8721 97.9296C100.774 98.1967 101.588 98.4104 102.335 98.6842C103.082 98.9579 103.748 99.205 104.327 99.452C104.906 99.6991 105.404 99.9395 105.815 100.153C106.609 100.56 107.033 100.861 107.033 100.861V100.854Z"
            fill="url(#paint10_linear_1735_974)"
          >
</path>
          <path
            d="M116.528 94.7437C116.528 94.7437 116.272 94.8772 115.821 95.0842C115.364 95.2845 114.724 95.5983 113.944 95.8988C113.149 96.1793 112.248 96.5399 111.238 96.7936C110.74 96.9271 110.229 97.0607 109.711 97.1742C109.179 97.2743 108.647 97.3678 108.116 97.448C107.591 97.5348 107.052 97.5815 106.527 97.6082C106.002 97.6349 105.491 97.655 104.993 97.6416C103.99 97.5815 103.075 97.5014 102.288 97.2677C101.5 97.034 100.854 96.7335 100.403 96.3529C99.9523 95.9656 99.6898 95.4848 99.6696 94.944C102.261 94.4098 104.515 94.0759 106.534 93.929C107.537 93.8422 108.486 93.8289 109.354 93.8088C109.791 93.8088 110.215 93.8155 110.626 93.8355C111.03 93.8489 111.413 93.8623 111.783 93.889C113.264 94.0092 114.442 94.1894 115.269 94.3898C116.097 94.5767 116.541 94.757 116.541 94.757L116.528 94.7437Z"
            fill="url(#paint11_linear_1735_974)"
          >
</path>
          <path
            d="M124.51 86.3918C124.51 86.3918 124.294 86.5654 123.924 86.8792C123.554 87.1797 123.022 87.6204 122.349 88.0811C121.683 88.5552 120.909 89.0827 120.034 89.5702C119.18 90.0843 118.237 90.5451 117.288 90.9591C116.824 91.1794 116.326 91.3397 115.855 91.5066C115.377 91.6668 114.913 91.8271 114.448 91.9339C113.513 92.1409 112.665 92.3012 111.884 92.2878C111.117 92.2812 110.464 92.1743 109.973 91.9406C109.482 91.7069 109.145 91.3263 109.017 90.8389C111.299 89.657 113.311 88.7556 115.148 88.1079C116.965 87.4401 118.594 87.0261 119.974 86.7524C120.66 86.6121 121.286 86.5253 121.851 86.4652C122.41 86.4051 122.881 86.3651 123.278 86.3584C124.065 86.3317 124.516 86.3918 124.516 86.3918H124.51Z"
            fill="url(#paint12_linear_1735_974)"
          >
</path>
          <path
            d="M130.616 76.262C130.616 76.262 130.461 76.4756 130.172 76.8496C129.896 77.2368 129.459 77.7443 128.94 78.3386C128.678 78.6391 128.409 78.9663 128.092 79.2868C127.776 79.6006 127.446 79.9278 127.096 80.275C126.417 80.9628 125.623 81.6038 124.842 82.2381C124.041 82.8458 123.22 83.3933 122.426 83.8407C121.612 84.268 120.858 84.6353 120.144 84.8223C118.724 85.2095 117.654 85.096 117.217 84.2413C119.074 82.552 120.75 81.2098 122.318 80.1548C123.072 79.6006 123.839 79.1599 124.532 78.7459C125.219 78.3319 125.892 77.9914 126.504 77.7043C127.702 77.1033 128.759 76.7561 129.465 76.5291C130.185 76.3154 130.603 76.262 130.603 76.262H130.616Z"
            fill="url(#paint13_linear_1735_974)"
          >
</path>
          <path
            d="M134.559 64.8834C134.559 64.8834 134.532 64.9435 134.485 65.057C134.438 65.1638 134.364 65.3308 134.263 65.5311C134.061 65.9384 133.772 66.5126 133.415 67.1937C133.065 67.8748 132.587 68.6227 132.096 69.4173C131.591 70.2119 130.992 70.9998 130.407 71.7744C129.774 72.5222 129.148 73.2434 128.502 73.851C127.843 74.4519 127.217 74.9728 126.604 75.3334C125.38 76.0545 124.384 76.2281 123.812 75.5604C125.184 73.5238 126.45 71.8612 127.688 70.499C128.287 69.8112 128.872 69.1902 129.458 68.6494C130.01 68.0952 130.548 67.6144 131.06 67.2004C132.069 66.3657 132.931 65.7648 133.563 65.4042C133.879 65.2172 134.135 65.0837 134.297 64.9969C134.465 64.9168 134.559 64.8767 134.559 64.8767V64.8834Z"
            fill="url(#paint14_linear_1735_974)"
          >
</path>
          <path
            d="M136.125 52.8521C136.125 52.8521 136.071 53.0924 135.97 53.5131C135.863 53.9271 135.735 54.5281 135.513 55.2292C135.291 55.9303 135.042 56.7382 134.725 57.5796C134.389 58.4209 134.046 59.3023 133.628 60.1503C132.807 61.8464 131.811 63.3888 130.863 64.3704C129.887 65.3453 129.012 65.7593 128.352 65.3052C128.554 64.751 128.77 64.2168 128.985 63.7093C129.207 63.2019 129.395 62.7077 129.618 62.247C130.062 61.3189 130.459 60.4575 130.896 59.6762C131.731 58.1138 132.592 56.8451 133.346 55.8234C133.723 55.3226 134.1 54.8753 134.429 54.5013C134.752 54.1274 135.048 53.8136 135.304 53.5665C135.802 53.0791 136.125 52.8521 136.125 52.8521Z"
            fill="url(#paint15_linear_1735_974)"
          >
</path>
          <path
            d="M135.315 40.8188C135.315 40.8188 135.315 41.0458 135.302 41.4531C135.275 41.8604 135.241 42.4347 135.181 43.1224C135.134 43.8035 135.033 44.6048 134.898 45.4395C134.831 45.8535 134.764 46.2942 134.683 46.7215C134.589 47.1622 134.488 47.5962 134.38 48.0303C134.272 48.4643 134.158 48.8916 134.043 49.3056C133.909 49.7263 133.767 50.1336 133.619 50.5142C133.33 51.2888 133.034 51.9832 132.677 52.5508C131.991 53.6859 131.277 54.2936 130.591 54.0532C131.224 49.5927 132.28 46.4077 133.33 44.1775C133.821 43.069 134.319 42.221 134.696 41.6534C134.885 41.373 135.033 41.1593 135.14 41.0191C135.248 40.8789 135.309 40.8054 135.309 40.8054L135.315 40.8188Z"
            fill="url(#paint16_linear_1735_974)"
          >
</path>
          <path
            d="M132.181 29.3673C132.181 29.3673 132.33 30.2153 132.498 31.4773C132.558 32.1183 132.619 32.8595 132.673 33.6474C132.72 34.4353 132.706 35.29 132.693 36.118C132.626 37.794 132.424 39.4366 132.013 40.6385C131.811 41.2395 131.589 41.7203 131.32 42.0475C131.044 42.3813 130.741 42.5483 130.412 42.5282C130.344 41.4732 130.304 40.4916 130.311 39.5702C130.297 38.6554 130.351 37.7873 130.405 36.9927C130.452 36.1981 130.539 35.457 130.661 34.7692C130.755 34.0881 130.869 33.4605 131.004 32.8996C131.28 31.7577 131.542 30.8897 131.778 30.2821C132.013 29.6811 132.188 29.3606 132.188 29.3606L132.181 29.3673Z"
            fill="url(#paint17_linear_1735_974)"
          >
</path>
          <path
            d="M126.901 19.1047C126.901 19.1047 126.975 19.285 127.096 19.6055C127.217 19.9194 127.386 20.3734 127.561 20.9276C127.736 21.4819 127.944 22.1295 128.126 22.8307C128.301 23.5318 128.469 24.293 128.611 25.0409C128.732 25.8021 128.826 26.57 128.88 27.2844C128.94 27.9989 128.913 28.6933 128.86 29.2743C128.759 30.4428 128.402 31.2574 127.79 31.391C126.719 27.6717 126.43 24.7404 126.484 22.5703C126.504 21.4952 126.625 20.6205 126.713 20.0262C126.807 19.4319 126.908 19.1047 126.908 19.1047H126.901Z"
            fill="url(#paint18_linear_1735_974)"
          >
</path>
          <path
            d="M119.801 10.5362C119.801 10.5362 119.896 10.6764 120.064 10.9302C120.225 11.1906 120.447 11.5645 120.71 12.0119C121.248 12.8933 121.861 14.1553 122.392 15.424C122.641 16.0717 122.87 16.7327 123.052 17.3604C123.24 17.9814 123.348 18.6024 123.408 19.1366C123.536 20.2116 123.382 21.0262 122.863 21.3C121.181 18.2485 120.373 15.6978 120.03 13.7346C119.848 12.7731 119.795 11.9652 119.781 11.3976C119.761 10.8434 119.795 10.5295 119.795 10.5295L119.801 10.5362Z"
            fill="url(#paint19_linear_1735_974)"
          >
</path>
          <path
            d="M111.256 4.05322C111.256 4.05322 111.694 4.48057 112.326 5.1483C112.642 5.47549 112.999 5.8828 113.356 6.33686C113.712 6.79091 114.096 7.25832 114.439 7.77248C114.783 8.2933 115.106 8.82081 115.388 9.32829C115.671 9.83576 115.886 10.3566 116.041 10.824C116.351 11.7521 116.384 12.5 115.974 12.8806C113.887 10.597 112.696 8.52701 112.043 6.84433C111.371 5.22175 111.263 4.05322 111.263 4.05322H111.256Z"
            fill="url(#paint20_linear_1735_974)"
          >
</path>
          <path
            d="M101.726 0C101.726 0 102.19 0.267092 102.863 0.694439C103.523 1.16185 104.397 1.77616 105.192 2.51066C105.595 2.87791 105.972 3.2652 106.315 3.63913C106.652 4.01973 106.941 4.42705 107.17 4.7943C107.614 5.54215 107.789 6.18985 107.507 6.62388C106.928 6.2633 106.41 5.88937 105.952 5.50209C105.481 5.13484 105.064 4.76759 104.687 4.39366C104.317 4.00638 103.98 3.6458 103.684 3.30526C103.388 2.95804 103.139 2.61082 102.917 2.28363C102.479 1.61591 102.17 1.08172 101.988 0.661052C101.8 0.253737 101.726 0.00667729 101.726 0.00667729V0Z"
            fill="url(#paint21_linear_1735_974)"
          >
</path>
          <path
            d="M101.438 84.2356C101.438 84.2356 101.277 84.3758 100.988 84.6229C100.691 84.8566 100.274 85.1838 99.7694 85.6111C99.2512 86.0184 98.6455 86.4792 97.9793 86.9933C97.3063 87.4741 96.5862 88.035 95.8325 88.5425C95.0855 89.0967 94.3183 89.5975 93.5847 90.1517C92.8512 90.6792 92.1512 91.1933 91.5523 91.7475C90.3544 92.7625 89.5401 93.8709 89.7285 94.9927C92.4204 94.7724 94.6076 93.8242 96.2632 92.6824C96.6804 92.3819 97.064 92.1015 97.414 91.7876C97.7639 91.4604 98.087 91.1399 98.3831 90.8194C98.9753 90.1917 99.4397 89.4973 99.8233 88.8696C100.207 88.2486 100.49 87.621 100.712 87.0601C100.934 86.4992 101.082 86.0051 101.189 85.5978C101.398 84.7497 101.432 84.2356 101.432 84.2356H101.438Z"
            fill="url(#paint22_linear_1735_974)"
          >
</path>
          <path
            d="M108.16 80.61C108.16 80.61 107.648 81.271 106.847 82.2993C106.43 82.7867 105.979 83.4211 105.434 84.0354C105.172 84.3492 104.896 84.6831 104.613 85.0303C104.324 85.3575 104.028 85.6914 103.738 86.0386C103.449 86.3992 103.146 86.733 102.843 87.0736C102.54 87.4141 102.251 87.7747 101.968 88.1219C101.39 88.7763 100.858 89.4841 100.407 90.1117C99.9561 90.7461 99.5994 91.3738 99.4043 91.9614C99.2091 92.549 99.1687 93.0898 99.3773 93.5906C101.814 92.6691 103.651 91.2335 104.956 89.7512C105.609 88.9833 106.148 88.2421 106.558 87.4742C106.767 87.0936 106.955 86.733 107.117 86.3725C107.278 86.0052 107.406 85.6446 107.527 85.3041C107.998 83.9352 108.14 82.7333 108.187 81.912C108.227 81.084 108.173 80.6033 108.173 80.6033L108.16 80.61Z"
            fill="url(#paint23_linear_1735_974)"
          >
</path>
          <path
            d="M114.049 75.2622C114.049 75.2622 113.961 75.4492 113.8 75.7764C113.638 76.1102 113.43 76.6043 113.14 77.1652C112.857 77.7328 112.534 78.4206 112.158 79.135C111.794 79.8762 111.37 80.6374 110.966 81.4387C110.771 81.846 110.542 82.22 110.334 82.6206C110.132 83.0145 109.93 83.4152 109.728 83.8091C109.318 84.5704 108.974 85.3716 108.672 86.0661C108.375 86.7739 108.174 87.4416 108.12 88.0426C108.052 88.6368 108.133 89.1376 108.423 89.5516C110.482 88.0559 111.888 86.2597 112.81 84.557C113.719 82.8276 114.163 81.185 114.331 79.7961C114.419 79.0883 114.439 78.4606 114.432 77.9131C114.419 77.3589 114.365 76.8781 114.311 76.4775C114.197 75.6962 114.055 75.2622 114.055 75.2622H114.049Z"
            fill="url(#paint24_linear_1735_974)"
          >
</path>
          <path
            d="M118.791 68.4707C118.791 68.4707 118.744 68.671 118.663 69.0249C118.596 69.3855 118.454 69.8729 118.306 70.4739C118.225 70.7744 118.158 71.1149 118.064 71.4555C117.97 71.796 117.869 72.1699 117.768 72.5505C117.579 73.3318 117.317 74.1264 117.102 74.9744C116.859 75.809 116.617 76.6637 116.408 77.4917C116.18 78.2997 116.011 79.121 115.877 79.8421C115.621 81.2911 115.655 82.5264 116.334 83.114C117.923 81.1976 118.865 79.1811 119.396 77.3782C119.639 76.4567 119.807 75.6087 119.874 74.8075C119.942 73.9928 119.948 73.265 119.901 72.604C119.78 71.2551 119.531 70.2469 119.262 69.5457C119.006 68.8446 118.791 68.4707 118.791 68.4707Z"
            fill="url(#paint25_linear_1735_974)"
          >
</path>
          <path
            d="M122.109 60.5708C122.109 60.5708 122.109 60.6242 122.109 60.711C122.109 60.8045 122.109 60.9381 122.096 61.105C122.076 61.4455 122.056 61.9396 122.035 62.5406C122.022 63.1416 121.948 63.8226 121.928 64.5972C121.887 65.3584 121.807 66.1597 121.773 67.0077C121.699 67.8223 121.658 68.6837 121.618 69.4983C121.564 70.2996 121.564 71.0942 121.591 71.7953C121.632 73.1909 121.914 74.3127 122.654 74.6733C123.731 72.5098 124.196 70.4198 124.337 68.6303C124.391 67.7289 124.357 66.8942 124.29 66.1463C124.196 65.3851 124.054 64.704 123.886 64.1098C123.55 62.9145 123.078 62.0198 122.735 61.4455C122.56 61.1584 122.405 60.9381 122.291 60.7912C122.177 60.6443 122.109 60.5708 122.109 60.5708Z"
            fill="url(#paint26_linear_1735_974)"
          >
</path>
          <path
            d="M123.773 51.9236C123.773 51.9236 123.888 52.6447 124.07 53.7665C124.15 54.3207 124.258 54.9751 124.359 55.6896C124.44 56.3974 124.574 57.1719 124.675 57.9398C124.891 59.4956 125.113 61.1049 125.449 62.3802C125.766 63.6489 126.237 64.5971 126.99 64.7306C127.118 64.1631 127.226 63.6155 127.307 63.088C127.394 62.5605 127.421 62.033 127.448 61.5389C127.522 60.544 127.441 59.6158 127.334 58.7812C127.091 57.1052 126.613 55.7697 126.062 54.7548C125.792 54.2473 125.523 53.8133 125.254 53.4594C124.978 53.0988 124.722 52.805 124.507 52.5846C124.07 52.1373 123.773 51.9303 123.773 51.9303V51.9236Z"
            fill="url(#paint27_linear_1735_974)"
          >
</path>
          <path
            d="M123.72 42.9756C123.72 42.9756 123.787 43.1358 123.895 43.4163C123.996 43.7034 124.144 44.104 124.325 44.5982C124.527 45.0856 124.716 45.6665 124.945 46.2942C125.059 46.608 125.18 46.9285 125.308 47.2691C125.422 47.603 125.537 47.9435 125.658 48.2907C125.907 48.9584 126.163 49.6395 126.418 50.334C126.674 50.995 126.964 51.616 127.219 52.1569C127.758 53.2319 128.384 53.9664 129.09 53.893C129.09 52.7979 129.057 51.7896 128.882 50.8681C128.801 50.4074 128.713 49.9734 128.612 49.5594C128.511 49.1454 128.37 48.7514 128.242 48.3842C127.731 46.9018 126.99 45.8068 126.338 45.0122C125.638 44.2109 124.992 43.7101 124.514 43.4029C124.278 43.2494 124.076 43.1425 123.942 43.0757C123.801 43.009 123.727 42.9823 123.727 42.9823L123.72 42.9756Z"
            fill="url(#paint28_linear_1735_974)"
          >
</path>
          <path
            d="M121.899 34.2087C121.899 34.2087 122.229 34.7429 122.76 35.5442C123.009 35.9582 123.306 36.4323 123.635 36.9464C123.965 37.4606 124.295 38.0282 124.665 38.589C125.365 39.7108 126.125 40.866 126.818 41.7073C127.175 42.1213 127.532 42.4552 127.868 42.6555C128.205 42.8625 128.535 42.9226 128.844 42.7957C128.656 41.8008 128.38 40.9061 128.084 40.1048C127.747 39.3169 127.411 38.6224 127.027 38.0215C126.637 37.4205 126.233 36.913 125.843 36.4857C125.425 36.0584 125.022 35.7111 124.645 35.4307C123.898 34.8631 123.178 34.576 122.686 34.4091C122.195 34.2421 121.899 34.2087 121.899 34.2087Z"
            fill="url(#paint29_linear_1735_974)"
          >
</path>
          <path
            d="M118.343 26.0759C118.343 26.0759 119.897 27.6117 121.687 29.3678C122.111 29.7952 122.542 30.2225 122.979 30.6098C123.424 30.9971 123.821 31.3643 124.224 31.6448C125.039 32.2057 125.752 32.4928 126.264 32.0989C125.907 31.2442 125.463 30.5297 125.052 29.8753C124.608 29.2476 124.144 28.7201 123.699 28.2594C122.757 27.378 121.869 26.8238 121.055 26.5166C120.254 26.1961 119.588 26.0759 119.096 26.0492C118.612 26.0225 118.336 26.0626 118.336 26.0626L118.343 26.0759Z"
            fill="url(#paint30_linear_1735_974)"
          >
</path>
          <path
            d="M113.24 18.9906C113.24 18.9906 113.348 19.0507 113.543 19.1709C113.738 19.2844 114.014 19.458 114.35 19.665C115.037 20.059 115.912 20.6333 116.861 21.1674C117.318 21.4546 117.789 21.7216 118.26 21.962C118.732 22.2024 119.162 22.4361 119.58 22.583C119.997 22.7366 120.38 22.8234 120.71 22.8234C121.033 22.8234 121.302 22.7166 121.498 22.4762C119.519 19.8053 117.291 18.9506 115.764 18.7569C114.983 18.6701 114.35 18.7235 113.92 18.8037C113.476 18.8972 113.233 19.004 113.233 19.004L113.24 18.9906Z"
            fill="url(#paint31_linear_1735_974)"
          >
</path>
          <path
            d="M106.83 13.3489C106.83 13.3489 107.268 13.4958 107.947 13.6894C108.29 13.7829 108.688 13.9031 109.112 14.0433C109.529 14.1769 110.007 14.2904 110.471 14.4306C110.935 14.5708 111.413 14.6977 111.877 14.7979C112.342 14.8914 112.766 14.9982 113.17 15.0249C113.964 15.085 114.61 14.9581 114.852 14.4373C112.584 12.5677 110.444 12.3607 109.044 12.5276C107.604 12.7546 106.823 13.3422 106.823 13.3422L106.83 13.3489Z"
            fill="url(#paint32_linear_1735_974)"
          >
</path>
          <path
            d="M99.4081 9.50226C99.4081 9.50226 99.8321 9.52896 100.471 9.52896C100.788 9.54232 101.165 9.56235 101.568 9.56903C101.972 9.58238 102.416 9.56903 102.847 9.58906C103.284 9.58906 103.729 9.58906 104.159 9.56235C104.59 9.53564 104.98 9.51561 105.344 9.44216C106.057 9.30194 106.596 9.02149 106.717 8.50066C106.124 8.24692 105.566 8.06664 105.041 7.93977C104.509 7.83293 104.005 7.79955 103.547 7.79287C103.089 7.77951 102.665 7.83961 102.275 7.93309C101.885 8.0199 101.541 8.13341 101.239 8.2536C100.626 8.49398 100.169 8.8412 99.8657 9.08159C99.5629 9.32865 99.4148 9.50226 99.4148 9.50226H99.4081Z"
            fill="url(#paint33_linear_1735_974)"
          >
</path>
          <path
            d="M89.7018 3.09044C89.7018 3.09044 90.3075 2.99696 91.2699 2.89013C91.7544 2.82335 92.3198 2.81 92.9524 2.78997C93.2687 2.78997 93.5984 2.77661 93.9349 2.77661C94.2714 2.79664 94.6281 2.81668 94.978 2.84338C95.3347 2.87009 95.6981 2.8968 96.0548 2.94354C96.4182 3.00364 96.7816 3.06374 97.1383 3.13051C97.8584 3.2507 98.5583 3.4577 99.2111 3.68472C99.8706 3.8984 100.463 4.1922 100.974 4.49268C101.23 4.63958 101.466 4.80651 101.674 4.96009C101.876 5.12702 102.058 5.31398 102.213 5.49427C101.762 5.54769 101.23 5.54769 100.651 5.49427C100.073 5.4275 99.4534 5.29395 98.8006 5.17376C98.4776 5.11367 98.1411 5.03354 97.8046 4.94673C97.4681 4.86661 97.1249 4.79315 96.7816 4.71303C96.4384 4.62622 96.0952 4.53942 95.7587 4.44594C95.4155 4.37249 95.0723 4.29236 94.7425 4.21891C94.406 4.1321 94.083 4.0453 93.7599 3.96517C93.4369 3.8984 93.1273 3.83162 92.8312 3.76485C92.239 3.63131 91.6939 3.4844 91.2295 3.41095C90.3075 3.23067 89.7153 3.09712 89.7153 3.09712L89.7018 3.09044Z"
            fill="url(#paint34_linear_1735_974)"
          >
</path>
          <path
            d="M29.0935 100.854C29.0935 100.854 29.3829 100.921 29.8876 101.028C30.3991 101.115 31.1259 101.228 31.994 101.342C32.8689 101.442 33.8851 101.502 34.9619 101.522C36.0454 101.495 37.1827 101.475 38.3134 101.302C39.4372 101.175 40.5477 100.901 41.5571 100.607C42.5666 100.287 43.4886 99.8794 44.2356 99.452C45.7498 98.5105 46.5911 97.4489 46.3892 96.3137C43.6299 96.5341 41.2543 96.8279 39.168 97.2485C38.6498 97.3487 38.1451 97.4689 37.6538 97.5891C37.1693 97.6892 36.7049 97.8028 36.254 97.9296C35.3522 98.1967 34.5379 98.4104 33.7909 98.6842C33.0439 98.9579 32.3776 99.205 31.7989 99.452C31.2201 99.6991 30.7221 99.9395 30.3116 100.153C29.5175 100.56 29.0935 100.861 29.0935 100.861V100.854Z"
            fill="url(#paint35_linear_1735_974)"
          >
</path>
          <path
            d="M19.5983 94.7437C19.5983 94.7437 19.854 94.8772 20.3049 95.0842C20.7626 95.2845 21.4019 95.5983 22.1826 95.8988C22.9767 96.1793 23.8785 96.5399 24.888 96.7936C25.386 96.9271 25.8974 97.0607 26.4156 97.1742C26.9473 97.2743 27.4789 97.3678 28.0106 97.448C28.5355 97.5348 29.0739 97.5815 29.5988 97.6082C30.1238 97.6349 30.6352 97.655 31.1332 97.6416C32.136 97.5815 33.0512 97.5014 33.8386 97.2677C34.626 97.034 35.2721 96.7335 35.723 96.3529C36.1739 95.9656 36.4364 95.4848 36.4565 94.944C33.8656 94.4098 31.6111 94.0759 29.5921 93.929C28.5894 93.8422 27.6405 93.8289 26.7723 93.8088C26.3349 93.8088 25.9109 93.8155 25.5004 93.8355C25.0966 93.8489 24.713 93.8623 24.3428 93.889C22.8623 94.0092 21.6845 94.1894 20.8568 94.3898C20.029 94.5767 19.5848 94.757 19.5848 94.757L19.5983 94.7437Z"
            fill="url(#paint36_linear_1735_974)"
          >
</path>
          <path
            d="M11.6166 86.3918C11.6166 86.3918 11.8319 86.5654 12.202 86.8792C12.5722 87.1797 13.1038 87.6204 13.7768 88.0811C14.4431 88.5552 15.217 89.0827 16.0919 89.5702C16.9466 90.0843 17.8888 90.5451 18.8377 90.9591C19.302 91.1794 19.8 91.3397 20.2711 91.5066C20.749 91.6668 21.2133 91.8271 21.6777 91.9339C22.6131 92.1409 23.4611 92.3012 24.2417 92.2878C25.0089 92.2812 25.6617 92.1743 26.153 91.9406C26.6443 91.7069 26.9808 91.3263 27.1086 90.8389C24.8272 89.657 22.815 88.7556 20.9778 88.1079C19.1607 87.4401 17.5321 87.0261 16.1525 86.7524C15.466 86.6121 14.8401 86.5253 14.2748 86.4652C13.7163 86.4051 13.2452 86.3651 12.8481 86.3584C12.0607 86.3317 11.6098 86.3918 11.6098 86.3918H11.6166Z"
            fill="url(#paint37_linear_1735_974)"
          >
</path>
          <path
            d="M5.51006 76.262C5.51006 76.262 5.66485 76.4756 5.95424 76.8496C6.23016 77.2368 6.6676 77.7443 7.1858 78.3386C7.44826 78.6391 7.71745 78.9663 8.03375 79.2868C8.35006 79.6006 8.67982 79.9278 9.02977 80.275C9.70948 80.9628 10.5036 81.6038 11.2843 82.2381C12.0851 82.8458 12.9062 83.3933 13.7003 83.8407C14.5146 84.268 15.2683 84.6353 15.9817 84.8223C17.4017 85.2095 18.4717 85.096 18.9092 84.2413C17.0517 82.552 15.376 81.2098 13.808 80.1548C13.0542 79.6006 12.287 79.1599 11.5938 78.7459C10.9074 78.3319 10.2344 77.9914 9.622 77.7043C8.42408 77.1033 7.3675 76.7561 6.66087 76.5291C5.94078 76.3154 5.52353 76.262 5.52353 76.262H5.51006Z"
            fill="url(#paint38_linear_1735_974)"
          >
</path>
          <path
            d="M1.56696 64.8834C1.56696 64.8834 1.59388 64.9435 1.64099 65.057C1.6881 65.1638 1.76213 65.3308 1.86307 65.5311C2.06497 65.9384 2.35435 66.5126 2.71103 67.1937C3.06098 67.8748 3.5388 68.6227 4.03008 69.4173C4.53482 70.2119 5.13377 70.9998 5.71927 71.7744C6.35187 72.5222 6.97775 73.2434 7.62381 73.851C8.28334 74.4519 8.90922 74.9728 9.52163 75.3334C10.7465 76.0545 11.7425 76.2281 12.3145 75.5604C10.9416 73.5238 9.67642 71.8612 8.43813 70.499C7.83917 69.8112 7.25367 69.1902 6.66818 68.6494C6.11633 68.0952 5.57794 67.6144 5.06647 67.2004C4.057 66.3657 3.19558 65.7648 2.56297 65.4042C2.24667 65.2172 1.99094 65.0837 1.82942 64.9969C1.66117 64.9168 1.56696 64.8767 1.56696 64.8767V64.8834Z"
            fill="url(#paint39_linear_1735_974)"
          >
</path>
          <path
            d="M-0.000201702 52.8521C-0.000201702 52.8521 0.0536442 53.0924 0.154592 53.5131C0.262269 53.9271 0.390131 54.5281 0.612216 55.2292C0.834301 55.9303 1.0833 56.7382 1.39961 57.5796C1.7361 58.4209 2.07932 59.3023 2.49657 60.1503C3.31761 61.8464 4.31363 63.3888 5.26254 64.3704C6.23837 65.3453 7.11324 65.7593 7.77277 65.3052C7.57087 64.751 7.35551 64.2168 7.14016 63.7093C6.91807 63.2019 6.72964 62.7077 6.50755 62.247C6.06338 61.3189 5.66633 60.4575 5.22889 59.6762C4.39439 58.1138 3.53297 56.8451 2.77923 55.8234C2.40235 55.3226 2.02548 54.8753 1.69572 54.5013C1.37269 54.1274 1.07657 53.8136 0.820839 53.5665C0.322831 53.0791 -0.000201702 52.8521 -0.000201702 52.8521Z"
            fill="url(#paint40_linear_1735_974)"
          >
</path>
          <path
            d="M0.810805 40.8188C0.810805 40.8188 0.810808 41.0458 0.824268 41.4531C0.851187 41.8604 0.884842 42.4347 0.94541 43.1224C0.992519 43.8035 1.09347 44.6048 1.22806 45.4395C1.29536 45.8535 1.36265 46.2942 1.44341 46.7215C1.53763 47.1622 1.63859 47.5962 1.74626 48.0303C1.85394 48.4643 1.96835 48.8916 2.08276 49.3056C2.21735 49.7263 2.35867 50.1336 2.50673 50.5142C2.79611 51.2888 3.09223 51.9832 3.44891 52.5508C4.13536 53.6859 4.84871 54.2936 5.53516 54.0532C4.90255 49.5927 3.84597 46.4077 2.79612 44.1775C2.30484 43.069 1.80683 42.221 1.42996 41.6534C1.24152 41.373 1.09347 41.1593 0.985788 41.0191C0.87811 40.8789 0.817542 40.8054 0.817542 40.8054L0.810805 40.8188Z"
            fill="url(#paint41_linear_1735_974)"
          >
</path>
          <path
            d="M3.94147 29.3673C3.94147 29.3673 3.79341 30.2153 3.62516 31.4773C3.56459 32.1183 3.50403 32.8595 3.45019 33.6474C3.40308 34.4353 3.41654 35.29 3.43 36.118C3.4973 37.794 3.69919 39.4366 4.10971 40.6385C4.31161 41.2395 4.53369 41.7203 4.80289 42.0475C5.07881 42.3813 5.38166 42.5483 5.71142 42.5282C5.77872 41.4732 5.81909 40.4916 5.81236 39.5702C5.82582 38.6554 5.77198 37.7873 5.71814 36.9927C5.67104 36.1981 5.58355 35.457 5.46242 34.7692C5.3682 34.0881 5.25379 33.4605 5.11919 32.8996C4.84326 31.7577 4.58081 30.8897 4.34526 30.2821C4.10972 29.6811 3.93474 29.3606 3.93474 29.3606L3.94147 29.3673Z"
            fill="url(#paint42_linear_1735_974)"
          >
</path>
          <path
            d="M9.22493 19.1047C9.22493 19.1047 9.1509 19.285 9.02976 19.6055C8.90862 19.9194 8.74039 20.3734 8.56541 20.9276C8.39043 21.4819 8.1818 22.1295 8.0001 22.8307C7.82512 23.5318 7.65687 24.293 7.51555 25.0409C7.39441 25.8021 7.3002 26.57 7.24636 27.2844C7.18579 27.9989 7.21271 28.6933 7.26655 29.2743C7.36749 30.4428 7.72417 31.2574 8.33659 31.391C9.40663 27.6717 9.69602 24.7404 9.64218 22.5703C9.62199 21.4952 9.50085 20.6205 9.41337 20.0262C9.31915 19.4319 9.21819 19.1047 9.21819 19.1047H9.22493Z"
            fill="url(#paint43_linear_1735_974)"
          >
</path>
          <path
            d="M16.3248 10.5362C16.3248 10.5362 16.2306 10.6764 16.0623 10.9302C15.9008 11.1906 15.6787 11.5645 15.4163 12.0119C14.8779 12.8933 14.2655 14.1553 13.7338 15.424C13.4848 16.0717 13.256 16.7327 13.0743 17.3604C12.8859 17.9814 12.7782 18.6024 12.7176 19.1366C12.5897 20.2116 12.7445 21.0262 13.2627 21.3C14.9452 18.2485 15.7528 15.6978 16.096 13.7346C16.2777 12.7731 16.3315 11.9652 16.345 11.3976C16.3652 10.8434 16.3315 10.5295 16.3315 10.5295L16.3248 10.5362Z"
            fill="url(#paint44_linear_1735_974)"
          >
</path>
          <path
            d="M24.87 4.05322C24.87 4.05322 24.4326 4.48057 23.8 5.1483C23.4837 5.47549 23.127 5.8828 22.7703 6.33686C22.4136 6.79091 22.03 7.25832 21.6868 7.77248C21.3436 8.2933 21.0205 8.82081 20.7379 9.32829C20.4552 9.83576 20.2399 10.3566 20.0851 10.824C19.7755 11.7521 19.7419 12.5 20.1524 12.8806C22.2386 10.597 23.4298 8.52701 24.0826 6.84433C24.7556 5.22175 24.8633 4.05322 24.8633 4.05322H24.87Z"
            fill="url(#paint45_linear_1735_974)"
          >
</path>
          <path
            d="M34.4005 0C34.4005 0 33.9361 0.267092 33.2631 0.694439C32.6036 1.16185 31.7287 1.77616 30.9346 2.51066C30.5308 2.87791 30.1539 3.2652 29.8107 3.63913C29.4742 4.01973 29.1848 4.42705 28.956 4.7943C28.5118 5.54215 28.3369 6.18985 28.6195 6.62388C29.1983 6.2633 29.7165 5.88937 30.1741 5.50209C30.6452 5.13484 31.0624 4.76759 31.4393 4.39366C31.8095 4.00638 32.146 3.6458 32.4421 3.30526C32.7382 2.95804 32.9872 2.61082 33.2093 2.28363C33.6467 1.61591 33.9563 1.08172 34.138 0.661052C34.3264 0.253737 34.4005 0.00667729 34.4005 0.00667729V0Z"
            fill="url(#paint46_linear_1735_974)"
          >
</path>
          <path
            d="M34.6868 84.2366C34.6868 84.2366 34.8483 84.3768 35.1376 84.6239C35.4338 84.8576 35.851 85.1848 36.3557 85.6121C36.8739 86.0194 37.4796 86.4801 38.1459 86.9943C38.8189 87.4751 39.539 88.036 40.2927 88.5434C41.0397 89.0976 41.8069 89.5984 42.5405 90.1527C43.274 90.6802 43.9739 91.1943 44.5729 91.7485C45.7708 92.7635 46.5851 93.8719 46.3967 94.9937C43.7047 94.7733 41.5175 93.8252 39.862 92.6834C39.4448 92.3829 39.0611 92.1024 38.7112 91.7886C38.3612 91.4614 38.0382 91.1409 37.7421 90.8204C37.1499 90.1927 36.6855 89.4983 36.3019 88.8706C35.9183 88.2496 35.6357 87.622 35.4136 87.0611C35.1915 86.5002 35.0434 86.0061 34.9358 85.5987C34.7271 84.7507 34.6935 84.2366 34.6935 84.2366H34.6868Z"
            fill="url(#paint47_linear_1735_974)"
          >
</path>
          <path
            d="M27.9654 80.6109C27.9654 80.6109 28.4769 81.272 29.2777 82.3003C29.695 82.7877 30.1459 83.4221 30.691 84.0364C30.9534 84.3502 31.2294 84.6841 31.512 85.0313C31.8014 85.3585 32.0975 85.6924 32.3869 86.0396C32.6763 86.4001 32.9791 86.734 33.282 87.0745C33.5848 87.4151 33.8742 87.7757 34.1568 88.1229C34.7356 88.7773 35.2673 89.485 35.7182 90.1127C36.1691 90.7471 36.5257 91.3747 36.7209 91.9623C36.9161 92.5499 36.9565 93.0908 36.7478 93.5916C34.3116 92.6701 32.4744 91.2345 31.1688 89.7521C30.516 88.9843 29.9776 88.2431 29.5671 87.4752C29.3585 87.0946 29.17 86.734 29.0085 86.3734C28.847 86.0062 28.7191 85.6456 28.598 85.3051C28.1269 83.9362 27.9856 82.7343 27.9385 81.913C27.8981 81.085 27.9519 80.6042 27.9519 80.6042L27.9654 80.6109Z"
            fill="url(#paint48_linear_1735_974)"
          >
</path>
          <path
            d="M22.0786 75.2622C22.0786 75.2622 22.1661 75.4492 22.3276 75.7764C22.4892 76.1102 22.6978 76.6043 22.9872 77.1652C23.2698 77.7328 23.5929 78.4206 23.9697 79.135C24.3331 79.8762 24.7571 80.6374 25.1609 81.4387C25.3561 81.846 25.5849 82.22 25.7935 82.6206C25.9954 83.0145 26.1973 83.4152 26.3992 83.8091C26.8097 84.5704 27.1529 85.3716 27.4558 86.0661C27.7519 86.7739 27.9538 87.4416 28.0076 88.0426C28.0749 88.6368 27.9942 89.1376 27.7048 89.5516C25.6455 88.0559 24.2389 86.2597 23.3169 84.557C22.4084 82.8276 21.9642 81.185 21.796 79.7961C21.7085 79.0883 21.6883 78.4606 21.695 77.9131C21.7085 77.3589 21.7623 76.8781 21.8162 76.4775C21.9306 75.6962 22.0719 75.2622 22.0719 75.2622H22.0786Z"
            fill="url(#paint49_linear_1735_974)"
          >
</path>
          <path
            d="M17.3344 68.4714C17.3344 68.4714 17.3815 68.6718 17.4622 69.0257C17.5295 69.3862 17.6709 69.8737 17.8189 70.4746C17.8997 70.7751 17.967 71.1156 18.0612 71.4562C18.1554 71.7967 18.2564 72.1707 18.3573 72.5513C18.5457 73.3325 18.8082 74.1271 19.0236 74.9751C19.2658 75.8098 19.5081 76.6645 19.7167 77.4925C19.9456 78.3004 20.1138 79.1217 20.2484 79.8429C20.5041 81.2918 20.4705 82.5271 19.7908 83.1147C18.2025 81.1984 17.2603 79.1818 16.7287 77.3789C16.4864 76.4575 16.3182 75.6095 16.2509 74.8082C16.1836 73.9936 16.1768 73.2657 16.224 72.6047C16.3451 71.2559 16.5941 70.2476 16.8633 69.5465C17.119 68.8454 17.3344 68.4714 17.3344 68.4714Z"
            fill="url(#paint50_linear_1735_974)"
          >
</path>
          <path
            d="M14.0158 60.572C14.0158 60.572 14.0158 60.6254 14.0158 60.7122C14.0158 60.8057 14.0158 60.9393 14.0293 61.1062C14.0495 61.4467 14.0697 61.9409 14.0898 62.5418C14.1033 63.1428 14.1773 63.8239 14.1975 64.5984C14.2379 65.3596 14.3187 66.1609 14.3523 67.0089C14.4263 67.8236 14.4667 68.6849 14.5071 69.4996C14.5609 70.3008 14.5609 71.0954 14.534 71.7966C14.4936 73.1921 14.211 74.3139 13.4707 74.6745C12.3939 72.511 11.9296 70.421 11.7882 68.6315C11.7344 67.7301 11.7681 66.8954 11.8354 66.1476C11.9296 65.3864 12.0709 64.7053 12.2391 64.111C12.5756 62.9158 13.0467 62.021 13.3899 61.4467C13.5649 61.1596 13.7197 60.9393 13.8341 60.7924C13.9485 60.6455 14.0158 60.572 14.0158 60.572Z"
            fill="url(#paint51_linear_1735_974)"
          >
</path>
          <path
            d="M12.3517 51.9248C12.3517 51.9248 12.2373 52.6459 12.0556 53.7677C11.9748 54.322 11.8671 54.9763 11.7662 55.6908C11.6854 56.3986 11.5508 57.1732 11.4499 57.941C11.2345 59.4969 11.0124 61.1061 10.676 62.3814C10.3596 63.6501 9.88856 64.5983 9.13482 64.7319C9.00695 64.1643 8.89928 63.6167 8.81852 63.0892C8.73103 62.5617 8.70411 62.0342 8.67719 61.5401C8.60316 60.5452 8.68392 59.617 8.79159 58.7824C9.03387 57.1064 9.51169 55.7709 10.0635 54.756C10.3327 54.2485 10.6019 53.8145 10.8711 53.4606C11.147 53.1 11.4028 52.8062 11.6181 52.5859C12.0556 52.1385 12.3517 51.9315 12.3517 51.9315V51.9248Z"
            fill="url(#paint52_linear_1735_974)"
          >
</path>
          <path
            d="M12.4054 42.9766C12.4054 42.9766 12.3381 43.1368 12.2304 43.4173C12.1295 43.7044 11.9814 44.105 11.7997 44.5991C11.5978 45.0866 11.4094 45.6675 11.1806 46.2952C11.0662 46.609 10.945 46.9295 10.8172 47.2701C10.7027 47.6039 10.5883 47.9445 10.4672 48.2917C10.2182 48.9594 9.96246 49.6405 9.70672 50.3349C9.45099 50.996 9.16161 51.617 8.90588 52.1578C8.36749 53.2329 7.74161 53.9674 7.03498 53.8939C7.03498 52.7989 7.06863 51.7906 7.24361 50.8691C7.32437 50.4084 7.41185 49.9744 7.5128 49.5604C7.61375 49.1464 7.75507 48.7524 7.88294 48.3852C8.39441 46.9028 9.13469 45.8077 9.78749 45.0131C10.4874 44.2119 11.1335 43.7111 11.6113 43.4039C11.8468 43.2503 12.0487 43.1435 12.1833 43.0767C12.3246 43.0099 12.3987 42.9832 12.3987 42.9832L12.4054 42.9766Z"
            fill="url(#paint53_linear_1735_974)"
          >
</path>
          <path
            d="M14.2294 34.2095C14.2294 34.2095 13.8997 34.7437 13.368 35.5449C13.119 35.9589 12.8229 36.433 12.4931 36.9472C12.1634 37.4613 11.8336 38.0289 11.4635 38.5898C10.7636 39.7116 10.0031 40.8667 9.30992 41.7081C8.95324 42.1221 8.59656 42.4559 8.26007 42.6563C7.92357 42.8632 7.59381 42.9233 7.28424 42.7965C7.47268 41.8016 7.74859 40.9068 8.04471 40.1055C8.3812 39.3176 8.71769 38.6232 9.1013 38.0222C9.49163 37.4213 9.89541 36.9138 10.2857 36.4864C10.703 36.0591 11.1068 35.7119 11.4837 35.4314C12.2307 34.8638 12.9508 34.5767 13.442 34.4098C13.9333 34.2429 14.2294 34.2095 14.2294 34.2095Z"
            fill="url(#paint54_linear_1735_974)"
          >
</path>
          <path
            d="M17.7826 26.0769C17.7826 26.0769 16.228 27.6127 14.4379 29.3688C14.0139 29.7962 13.5832 30.2235 13.1458 30.6108C12.7016 30.9981 12.3045 31.3653 11.9008 31.6458C11.0864 32.2067 10.3731 32.4938 9.86162 32.0998C10.2183 31.2451 10.6625 30.5307 11.073 29.8763C11.5171 29.2486 11.9815 28.7211 12.4257 28.2604C13.3679 27.379 14.2562 26.8248 15.0705 26.5176C15.8714 26.1971 16.5376 26.0769 17.0289 26.0502C17.5134 26.0235 17.7894 26.0636 17.7894 26.0636L17.7826 26.0769Z"
            fill="url(#paint55_linear_1735_974)"
          >
</path>
          <path
            d="M22.8852 18.9911C22.8852 18.9911 22.7775 19.0512 22.5823 19.1714C22.3872 19.2849 22.1112 19.4585 21.7748 19.6655C21.0883 20.0595 20.2134 20.6337 19.2645 21.1679C18.8069 21.455 18.3358 21.7221 17.8647 21.9625C17.3936 22.2029 16.9629 22.4366 16.5457 22.5835C16.1284 22.7371 15.7448 22.8239 15.4151 22.8239C15.092 22.8239 14.8228 22.7171 14.6277 22.4767C16.6062 19.8058 18.8338 18.9511 20.3615 18.7574C21.1421 18.6706 21.7748 18.724 22.2055 18.8042C22.6496 18.8976 22.8919 19.0045 22.8919 19.0045L22.8852 18.9911Z"
            fill="url(#paint56_linear_1735_974)"
          >
</path>
          <path
            d="M29.295 13.3499C29.295 13.3499 28.8576 13.4968 28.1779 13.6904C27.8347 13.7839 27.4376 13.9041 27.0136 14.0443C26.5964 14.1779 26.1185 14.2914 25.6542 14.4316C25.1898 14.5718 24.712 14.6987 24.2476 14.7989C23.7833 14.8923 23.3593 14.9992 22.9555 15.0259C22.1614 15.086 21.5153 14.9591 21.2731 14.4383C23.541 12.5686 25.6811 12.3616 27.0809 12.5286C28.5211 12.7556 29.3018 13.3432 29.3018 13.3432L29.295 13.3499Z"
            fill="url(#paint57_linear_1735_974)"
          >
</path>
          <path
            d="M36.7171 9.50299C36.7171 9.50299 36.2931 9.5297 35.6538 9.5297C35.3375 9.54305 34.9606 9.56308 34.5568 9.56976C34.153 9.58312 33.7089 9.56976 33.2782 9.58979C32.8407 9.58979 32.3965 9.58979 31.9658 9.56308C31.5351 9.53637 31.1448 9.51634 30.7814 9.44289C30.068 9.30267 29.5296 9.02222 29.4085 8.50139C30.0007 8.24766 30.5593 8.06737 31.0842 7.9405C31.6159 7.83366 32.1206 7.80028 32.5783 7.7936C33.0359 7.78025 33.4599 7.84034 33.8502 7.93382C34.2405 8.02063 34.5838 8.13414 34.8866 8.25433C35.499 8.49472 35.9566 8.84194 36.2595 9.08232C36.5623 9.32938 36.7104 9.50299 36.7104 9.50299H36.7171Z"
            fill="url(#paint58_linear_1735_974)"
          >
</path>
          <path
            d="M46.424 3.09044C46.424 3.09044 45.8183 2.99696 44.8559 2.89013C44.3713 2.82335 43.806 2.81 43.1734 2.78997C42.8571 2.78997 42.5274 2.77661 42.1909 2.77661C41.8544 2.79664 41.4977 2.81668 41.1477 2.84338C40.7911 2.87009 40.4277 2.8968 40.071 2.94354C39.7076 3.00364 39.3442 3.06374 38.9875 3.13051C38.2674 3.2507 37.5675 3.4577 36.9147 3.68472C36.2552 3.8984 35.6629 4.1922 35.1515 4.49268C34.8957 4.63958 34.6602 4.80651 34.4516 4.96009C34.2497 5.12702 34.068 5.31398 33.9132 5.49427C34.3641 5.54769 34.8957 5.54769 35.4745 5.49427C36.0533 5.4275 36.6724 5.29395 37.3252 5.17376C37.6482 5.11367 37.9847 5.03354 38.3212 4.94673C38.6577 4.86661 39.0009 4.79315 39.3442 4.71303C39.6874 4.62622 40.0306 4.53942 40.3671 4.44594C40.7103 4.37249 41.0535 4.29236 41.3833 4.21891C41.7198 4.1321 42.0428 4.0453 42.3658 3.96517C42.6889 3.8984 42.9985 3.83162 43.2946 3.76485C43.8868 3.63131 44.4319 3.4844 44.8963 3.41095C45.8183 3.23067 46.4105 3.09712 46.4105 3.09712L46.424 3.09044Z"
            fill="url(#paint59_linear_1735_974)"
          >
</path>
          <path
            d="M54.2327 90.0213C54.3471 89.9145 54.4615 89.8143 54.5624 89.7008C54.6768 89.5739 54.7576 89.5739 54.8787 89.7008C55.296 90.1549 55.7267 90.5956 56.1507 91.0429C57.3082 92.2582 58.4657 93.4735 59.6233 94.6954C59.7444 94.829 59.8117 94.8156 59.9328 94.6954C60.3366 94.2881 60.3366 94.2948 59.9328 93.8875C58.3984 92.365 56.8708 90.8493 55.3364 89.3269C55.2691 89.2601 55.1277 89.2 55.2018 89.0932C55.3027 88.9463 55.4238 88.7927 55.5988 88.7259C55.6661 88.6992 55.7267 88.7994 55.7805 88.8528C56.6419 89.7075 57.4966 90.5555 58.3581 91.4102C59.1185 92.1647 59.8857 92.9193 60.6395 93.6805C60.7741 93.8207 60.8616 93.8474 61.0096 93.6938C61.3326 93.3399 61.3326 93.4468 61.0096 93.1196C59.4416 91.5571 57.8668 90.0013 56.2987 88.4455C56.0699 88.2184 56.0699 88.2184 56.292 88.0048C56.6285 87.6776 56.541 87.6776 56.8708 88.0048C58.4523 89.5739 60.0338 91.1431 61.6153 92.7123C61.7768 92.8725 61.8643 92.8658 62.0191 92.7123C62.3556 92.3584 62.369 92.365 62.0191 92.0312C60.4039 90.5221 58.782 89.013 57.1601 87.5106C57.0323 87.3905 56.9986 87.3103 57.14 87.1768C57.5437 86.8029 57.4092 86.8095 57.8129 87.1234C59.3137 88.2719 60.801 89.4337 62.3017 90.5889C63.1901 91.27 63.6006 92.158 63.6006 93.2798C63.6006 95.0092 65.6936 98.1209 67.1405 99.0557C67.228 99.1091 67.302 99.1291 67.3962 99.069C68.2711 98.5415 70.8621 95.8172 71.5082 95.0026C71.6428 94.8356 71.7504 94.6487 71.8447 94.455C71.9523 94.248 71.9658 94.0544 71.8716 93.8207C71.4409 92.7256 71.5485 91.6239 71.9658 90.5622C72.7397 88.6057 74.1665 87.297 76.1854 86.676C77.5852 86.242 78.8908 86.489 79.9743 87.5173C80.8626 88.3587 81.1857 89.4204 81.0444 90.6223C80.7752 92.8658 78.6822 95.283 76.1047 95.7771C75.2365 95.9441 74.3818 95.9307 73.5608 95.5701C73.4666 95.5301 73.3858 95.5368 73.2916 95.5635C72.8945 95.677 72.5648 95.904 72.2619 96.1711C71.663 96.6919 69.4421 99.4697 69.0047 100.124C68.8903 100.291 69.0047 100.358 69.0989 100.445C71.4341 102.762 73.7694 105.085 76.1114 107.402C76.2729 107.563 76.4277 107.716 76.5892 107.876C76.9459 108.244 77.0536 108.678 76.8853 109.152C76.7171 109.619 76.3671 109.886 75.8691 109.946C75.5663 109.986 75.2836 109.9 75.0413 109.719C74.9202 109.633 74.8193 109.532 74.7116 109.426C72.3763 107.109 70.0343 104.791 67.6991 102.474C67.551 102.328 67.403 102.328 67.2549 102.474C64.886 104.825 62.5171 107.175 60.1482 109.532C59.7713 109.913 59.3406 110.107 58.809 109.94C57.9812 109.679 57.3351 108.584 58.2235 107.703C60.7 105.259 63.1632 102.808 65.633 100.364C65.7945 100.211 65.7878 100.117 65.6532 99.9571C64.8995 99.029 62.719 96.525 61.5211 96.2579C61.1173 96.1711 60.7068 96.1845 60.2962 96.1444C59.4483 96.0709 58.7349 95.7371 58.1965 95.0627C56.8842 93.4201 55.5652 91.7774 54.2529 90.1348C54.2529 90.1014 54.2529 90.0747 54.2529 90.0413L54.2327 90.0213ZM72.8474 92.7323C73.1974 91.8042 73.48 90.8493 74.052 90.028C74.6308 89.2067 75.4317 88.5857 76.1316 87.8712C75.0952 88.2051 74.1934 88.766 73.5675 89.6541C72.9214 90.5689 72.7599 91.6305 72.8407 92.7323H72.8474Z"
            fill="url(#paint60_linear_1735_974)"
          >
</path>
          <path
            d="M43.7216 31.24V33.7774H36.0765V23.708H43.6274V26.2387H39.401V27.6543H43.2034V29.7243H39.401V31.24H43.7216Z"
            fill="white"
          >
</path>
          <path
            d="M53.0757 29.5232V33.7767H50.7202L50.0809 32.7016H50.0203C49.6973 33.543 49.058 33.9436 47.7053 33.9436C45.9757 33.9436 45.1816 32.962 45.1816 31.4663C45.1816 29.9706 45.9219 28.949 48.0081 28.949C48.6676 28.9289 49.3272 29.0224 49.953 29.2161H50.0001V28.7954C50.0001 28.1811 49.6569 27.9674 47.9475 27.9674C47.1803 27.9741 46.4199 28.0409 45.6661 28.1611L45.5921 28.0876V25.8908C46.4872 25.7305 47.389 25.6504 48.2975 25.6504C51.9316 25.6504 53.069 27.0326 53.069 29.5232M50.0001 31.6666V30.5716H48.7215C48.3513 30.5716 48.2033 30.7518 48.2033 31.039V31.4062C48.2033 31.7534 48.3513 31.9204 48.8426 31.9204H48.9907C49.3406 31.9337 49.6906 31.8469 49.9934 31.6733"
            fill="white"
          >
</path>
          <path
            d="M60.6619 31.1866V33.7507C60.0024 33.8775 59.3294 33.9376 58.6497 33.951C56.0654 33.951 55.2915 32.8025 55.2915 30.7325V28.4088H54.2888V25.818H55.2915V24.3557L57.3576 23.708H58.4209V25.818H60.6081V28.4088H58.4209V30.4721C58.4209 30.9729 58.5689 31.1665 59.3025 31.1665C59.7534 31.1665 60.3052 31.1665 60.5946 31.1198L60.6552 31.1866H60.6619Z"
            fill="white"
          >
</path>
          <path
            d="M68.2645 23.6033C69.173 23.6033 70.0815 23.6634 70.9833 23.7969V26.1807L70.9228 26.2408C70.344 26.1941 69.3278 26.134 68.4597 26.134C66.831 26.134 66.5484 26.3343 66.5484 26.7817V26.8885C66.5484 27.2357 66.6561 27.376 67.6723 27.5229L68.8702 27.7165C70.6536 27.9702 71.5756 28.8116 71.5756 30.4943C71.5756 32.7579 70.5257 33.9464 66.4138 33.9464C65.3707 33.9598 64.3275 33.8863 63.2979 33.7327V31.2755L63.3584 31.2288C64.3343 31.3489 65.3235 31.409 66.3061 31.409C67.9011 31.409 68.1905 31.2087 68.1905 30.6745V30.5543C68.1905 30.1604 68.0962 30.0068 66.7772 29.8198L65.5322 29.6195C64.0583 29.4059 63.1633 28.6113 63.1633 26.8885C63.1767 24.8052 64.341 23.5833 68.2645 23.5833"
            fill="white"
          >
</path>
          <path
            d="M80.8494 25.8474V33.8134H78.4334L77.8614 32.5915H77.7806C77.4643 33.4796 76.6769 33.9804 75.4521 33.9804C73.8235 33.9804 72.8409 33.0322 72.8409 31.0557V25.8474H75.9905V30.5549C75.9905 31.0223 76.1991 31.1759 76.751 31.1759C77.0942 31.1759 77.424 31.0958 77.7268 30.9355V25.8541H80.8562L80.8494 25.8474Z"
            fill="white"
          >
</path>
          <path
            d="M87.9898 25.8466V28.7712L87.8956 28.8647C87.7206 28.8514 87.5523 28.8447 87.3774 28.8447C86.738 28.838 86.0987 28.8981 85.4728 29.025V33.8126H82.3434V25.8466H84.6047L85.244 27.0819H85.3046C85.594 26.1671 86.3208 25.7598 87.3235 25.7598C87.5456 25.7531 87.7677 25.7798 87.9763 25.8466"
            fill="white"
          >
</path>
          <path
            d="M92.1226 30.5469V30.8808C92.1226 31.5152 92.4322 31.7555 93.933 31.7555C94.7876 31.7622 95.6423 31.7021 96.4903 31.5753L96.5509 31.6353V33.6719C95.5818 33.8856 94.5925 33.9858 93.6032 33.9724C90.0902 33.9724 89.0605 32.6036 89.0605 29.8725C89.0605 26.9746 90.4603 25.6792 93.2398 25.6792C95.6154 25.6792 96.8133 26.7476 96.8133 28.9244V30.5536H92.1294L92.1226 30.5469ZM92.1226 28.7641V28.931H93.9666V28.3902C93.9666 27.8961 93.8185 27.6957 93.1657 27.6957H93.0581C92.2976 27.6957 92.1226 28.0296 92.1226 28.7641Z"
            fill="white"
          >
</path>
          <defs>
            <linearGradient
              id="paint0_linear_1735_974"
              x1="26.0505"
              y1="52.8354"
              x2="110.853"
              y2="52.8354"
              gradientUnits="userSpaceOnUse"
            >
              <stop stop-color="#E4C99B">
</stop>
              <stop offset="0.5" stop-color="#E0BF85">
</stop>
              <stop offset="1" stop-color="#CF9E43">
</stop>
            </linearGradient>
            <linearGradient
              id="paint1_linear_1735_974"
              x1="26.0477"
              y1="52.8357"
              x2="110.85"
              y2="52.8357"
              gradientUnits="userSpaceOnUse"
            >
              <stop stop-color="#E4C99B">
</stop>
              <stop offset="0.5" stop-color="#E0BF85">
</stop>
              <stop offset="1" stop-color="#CF9E43">
</stop>
            </linearGradient>
            <linearGradient
              id="paint2_linear_1735_974"
              x1="26.0527"
              y1="52.8357"
              x2="110.855"
              y2="52.8357"
              gradientUnits="userSpaceOnUse"
            >
              <stop stop-color="#E4C99B">
</stop>
              <stop offset="0.5" stop-color="#E0BF85">
</stop>
              <stop offset="1" stop-color="#CF9E43">
</stop>
            </linearGradient>
            <linearGradient
              id="paint3_linear_1735_974"
              x1="26.0501"
              y1="52.8357"
              x2="110.853"
              y2="52.8357"
              gradientUnits="userSpaceOnUse"
            >
              <stop stop-color="#E4C99B">
</stop>
              <stop offset="0.5" stop-color="#E0BF85">
</stop>
              <stop offset="1" stop-color="#CF9E43">
</stop>
            </linearGradient>
            <linearGradient
              id="paint4_linear_1735_974"
              x1="26.0529"
              y1="52.8354"
              x2="110.856"
              y2="52.8354"
              gradientUnits="userSpaceOnUse"
            >
              <stop stop-color="#E4C99B">
</stop>
              <stop offset="0.5" stop-color="#E0BF85">
</stop>
              <stop offset="1" stop-color="#CF9E43">
</stop>
            </linearGradient>
            <linearGradient
              id="paint5_linear_1735_974"
              x1="26.0505"
              y1="52.8354"
              x2="110.853"
              y2="52.8354"
              gradientUnits="userSpaceOnUse"
            >
              <stop stop-color="#E4C99B">
</stop>
              <stop offset="0.5" stop-color="#E0BF85">
</stop>
              <stop offset="1" stop-color="#CF9E43">
</stop>
            </linearGradient>
            <linearGradient
              id="paint6_linear_1735_974"
              x1="26.0477"
              y1="52.8357"
              x2="110.85"
              y2="52.8357"
              gradientUnits="userSpaceOnUse"
            >
              <stop stop-color="#E4C99B">
</stop>
              <stop offset="0.5" stop-color="#E0BF85">
</stop>
              <stop offset="1" stop-color="#CF9E43">
</stop>
            </linearGradient>
            <linearGradient
              id="paint7_linear_1735_974"
              x1="26.0527"
              y1="52.8357"
              x2="110.855"
              y2="52.8357"
              gradientUnits="userSpaceOnUse"
            >
              <stop stop-color="#E4C99B">
</stop>
              <stop offset="0.5" stop-color="#E0BF85">
</stop>
              <stop offset="1" stop-color="#CF9E43">
</stop>
            </linearGradient>
            <linearGradient
              id="paint8_linear_1735_974"
              x1="26.0501"
              y1="52.8357"
              x2="110.853"
              y2="52.8357"
              gradientUnits="userSpaceOnUse"
            >
              <stop stop-color="#E4C99B">
</stop>
              <stop offset="0.5" stop-color="#E0BF85">
</stop>
              <stop offset="1" stop-color="#CF9E43">
</stop>
            </linearGradient>
            <linearGradient
              id="paint9_linear_1735_974"
              x1="26.0529"
              y1="52.8354"
              x2="110.856"
              y2="52.8354"
              gradientUnits="userSpaceOnUse"
            >
              <stop stop-color="#E4C99B">
</stop>
              <stop offset="0.5" stop-color="#E0BF85">
</stop>
              <stop offset="1" stop-color="#CF9E43">
</stop>
            </linearGradient>
            <linearGradient
              id="paint10_linear_1735_974"
              x1="89.7033"
              y1="98.9179"
              x2="107.033"
              y2="98.9179"
              gradientUnits="userSpaceOnUse"
            >
              <stop stop-color="#E4C99B">
</stop>
              <stop offset="0.5" stop-color="#E0BF85">
</stop>
              <stop offset="1" stop-color="#CF9E43">
</stop>
            </linearGradient>
            <linearGradient
              id="paint11_linear_1735_974"
              x1="99.6629"
              y1="95.7252"
              x2="116.528"
              y2="95.7252"
              gradientUnits="userSpaceOnUse"
            >
              <stop stop-color="#E4C99B">
</stop>
              <stop offset="0.5" stop-color="#E0BF85">
</stop>
              <stop offset="1" stop-color="#CF9E43">
</stop>
            </linearGradient>
            <linearGradient
              id="paint12_linear_1735_974"
              x1="109.017"
              y1="89.3231"
              x2="124.51"
              y2="89.3231"
              gradientUnits="userSpaceOnUse"
            >
              <stop stop-color="#E4C99B">
</stop>
              <stop offset="0.5" stop-color="#E0BF85">
</stop>
              <stop offset="1" stop-color="#CF9E43">
</stop>
            </linearGradient>
            <linearGradient
              id="paint13_linear_1735_974"
              x1="117.224"
              y1="80.6489"
              x2="130.616"
              y2="80.6489"
              gradientUnits="userSpaceOnUse"
            >
              <stop stop-color="#E4C99B">
</stop>
              <stop offset="0.5" stop-color="#E0BF85">
</stop>
              <stop offset="1" stop-color="#CF9E43">
</stop>
            </linearGradient>
            <linearGradient
              id="paint14_linear_1735_974"
              x1="123.805"
              y1="70.4255"
              x2="134.559"
              y2="70.4255"
              gradientUnits="userSpaceOnUse"
            >
              <stop stop-color="#E4C99B">
</stop>
              <stop offset="0.5" stop-color="#E0BF85">
</stop>
              <stop offset="1" stop-color="#CF9E43">
</stop>
            </linearGradient>
            <linearGradient
              id="paint15_linear_1735_974"
              x1="128.359"
              y1="59.1621"
              x2="136.125"
              y2="59.1621"
              gradientUnits="userSpaceOnUse"
            >
              <stop stop-color="#E4C99B">
</stop>
              <stop offset="0.5" stop-color="#E0BF85">
</stop>
              <stop offset="1" stop-color="#CF9E43">
</stop>
            </linearGradient>
            <linearGradient
              id="paint16_linear_1735_974"
              x1="130.598"
              y1="47.4694"
              x2="135.315"
              y2="47.4694"
              gradientUnits="userSpaceOnUse"
            >
              <stop stop-color="#E4C99B">
</stop>
              <stop offset="0.5" stop-color="#E0BF85">
</stop>
              <stop offset="1" stop-color="#CF9E43">
</stop>
            </linearGradient>
            <linearGradient
              id="paint17_linear_1735_974"
              x1="130.304"
              y1="35.9511"
              x2="132.7"
              y2="35.9511"
              gradientUnits="userSpaceOnUse"
            >
              <stop stop-color="#E4C99B">
</stop>
              <stop offset="0.5" stop-color="#E0BF85">
</stop>
              <stop offset="1" stop-color="#CF9E43">
</stop>
            </linearGradient>
            <linearGradient
              id="paint18_linear_1735_974"
              x1="126.47"
              y1="25.2478"
              x2="128.907"
              y2="25.2478"
              gradientUnits="userSpaceOnUse"
            >
              <stop stop-color="#E4C99B">
</stop>
              <stop offset="0.5" stop-color="#E0BF85">
</stop>
              <stop offset="1" stop-color="#CF9E43">
</stop>
            </linearGradient>
            <linearGradient
              id="paint19_linear_1735_974"
              x1="119.781"
              y1="15.9181"
              x2="123.456"
              y2="15.9181"
              gradientUnits="userSpaceOnUse"
            >
              <stop stop-color="#E4C99B">
</stop>
              <stop offset="0.5" stop-color="#E0BF85">
</stop>
              <stop offset="1" stop-color="#CF9E43">
</stop>
            </linearGradient>
            <linearGradient
              id="paint20_linear_1735_974"
              x1="111.256"
              y1="8.47359"
              x2="116.277"
              y2="8.47359"
              gradientUnits="userSpaceOnUse"
            >
              <stop stop-color="#E4C99B">
</stop>
              <stop offset="0.5" stop-color="#E0BF85">
</stop>
              <stop offset="1" stop-color="#CF9E43">
</stop>
            </linearGradient>
            <linearGradient
              id="paint21_linear_1735_974"
              x1="101.726"
              y1="3.31194"
              x2="107.648"
              y2="3.31194"
              gradientUnits="userSpaceOnUse"
            >
              <stop stop-color="#E4C99B">
</stop>
              <stop offset="0.5" stop-color="#E0BF85">
</stop>
              <stop offset="1" stop-color="#CF9E43">
</stop>
            </linearGradient>
            <linearGradient
              id="paint22_linear_1735_974"
              x1="89.7016"
              y1="89.6175"
              x2="101.438"
              y2="89.6175"
              gradientUnits="userSpaceOnUse"
            >
              <stop stop-color="#E4C99B">
</stop>
              <stop offset="0.5" stop-color="#E0BF85">
</stop>
              <stop offset="1" stop-color="#CF9E43">
</stop>
            </linearGradient>
            <linearGradient
              id="paint23_linear_1735_974"
              x1="99.236"
              y1="87.1003"
              x2="108.187"
              y2="87.1003"
              gradientUnits="userSpaceOnUse"
            >
              <stop stop-color="#E4C99B">
</stop>
              <stop offset="0.5" stop-color="#E0BF85">
</stop>
              <stop offset="1" stop-color="#CF9E43">
</stop>
            </linearGradient>
            <linearGradient
              id="paint24_linear_1735_974"
              x1="108.093"
              y1="82.4069"
              x2="114.432"
              y2="82.4069"
              gradientUnits="userSpaceOnUse"
            >
              <stop stop-color="#E4C99B">
</stop>
              <stop offset="0.5" stop-color="#E0BF85">
</stop>
              <stop offset="1" stop-color="#CF9E43">
</stop>
            </linearGradient>
            <linearGradient
              id="paint25_linear_1735_974"
              x1="115.729"
              y1="75.789"
              x2="119.928"
              y2="75.789"
              gradientUnits="userSpaceOnUse"
            >
              <stop stop-color="#E4C99B">
</stop>
              <stop offset="0.5" stop-color="#E0BF85">
</stop>
              <stop offset="1" stop-color="#CF9E43">
</stop>
            </linearGradient>
            <linearGradient
              id="paint26_linear_1735_974"
              x1="121.571"
              y1="67.622"
              x2="124.364"
              y2="67.622"
              gradientUnits="userSpaceOnUse"
            >
              <stop stop-color="#E4C99B">
</stop>
              <stop offset="0.5" stop-color="#E0BF85">
</stop>
              <stop offset="1" stop-color="#CF9E43">
</stop>
            </linearGradient>
            <linearGradient
              id="paint27_linear_1735_974"
              x1="123.773"
              y1="58.3271"
              x2="127.475"
              y2="58.3271"
              gradientUnits="userSpaceOnUse"
            >
              <stop stop-color="#E4C99B">
</stop>
              <stop offset="0.5" stop-color="#E0BF85">
</stop>
              <stop offset="1" stop-color="#CF9E43">
</stop>
            </linearGradient>
            <linearGradient
              id="paint28_linear_1735_974"
              x1="123.72"
              y1="48.4376"
              x2="129.09"
              y2="48.4376"
              gradientUnits="userSpaceOnUse"
            >
              <stop stop-color="#E4C99B">
</stop>
              <stop offset="0.5" stop-color="#E0BF85">
</stop>
              <stop offset="1" stop-color="#CF9E43">
</stop>
            </linearGradient>
            <linearGradient
              id="paint29_linear_1735_974"
              x1="121.899"
              y1="38.5356"
              x2="128.844"
              y2="38.5356"
              gradientUnits="userSpaceOnUse"
            >
              <stop stop-color="#E4C99B">
</stop>
              <stop offset="0.5" stop-color="#E0BF85">
</stop>
              <stop offset="1" stop-color="#CF9E43">
</stop>
            </linearGradient>
            <linearGradient
              id="paint30_linear_1735_974"
              x1="118.343"
              y1="29.1675"
              x2="126.264"
              y2="29.1675"
              gradientUnits="userSpaceOnUse"
            >
              <stop stop-color="#E4C99B">
</stop>
              <stop offset="0.5" stop-color="#E0BF85">
</stop>
              <stop offset="1" stop-color="#CF9E43">
</stop>
            </linearGradient>
            <linearGradient
              id="paint31_linear_1735_974"
              x1="113.24"
              y1="20.7601"
              x2="121.504"
              y2="20.7601"
              gradientUnits="userSpaceOnUse"
            >
              <stop stop-color="#E4C99B">
</stop>
              <stop offset="0.5" stop-color="#E0BF85">
</stop>
              <stop offset="1" stop-color="#CF9E43">
</stop>
            </linearGradient>
            <linearGradient
              id="paint32_linear_1735_974"
              x1="106.83"
              y1="13.7629"
              x2="114.852"
              y2="13.7629"
              gradientUnits="userSpaceOnUse"
            >
              <stop stop-color="#E4C99B">
</stop>
              <stop offset="0.5" stop-color="#E0BF85">
</stop>
              <stop offset="1" stop-color="#CF9E43">
</stop>
            </linearGradient>
            <linearGradient
              id="paint33_linear_1735_974"
              x1="99.4081"
              y1="8.6943"
              x2="106.717"
              y2="8.6943"
              gradientUnits="userSpaceOnUse"
            >
              <stop stop-color="#E4C99B">
</stop>
              <stop offset="0.5" stop-color="#E0BF85">
</stop>
              <stop offset="1" stop-color="#CF9E43">
</stop>
            </linearGradient>
            <linearGradient
              id="paint34_linear_1735_974"
              x1="89.7018"
              y1="4.15881"
              x2="102.213"
              y2="4.15881"
              gradientUnits="userSpaceOnUse"
            >
              <stop stop-color="#E4C99B">
</stop>
              <stop offset="0.5" stop-color="#E0BF85">
</stop>
              <stop offset="1" stop-color="#CF9E43">
</stop>
            </linearGradient>
            <linearGradient
              id="paint35_linear_1735_974"
              x1="46.4228"
              y1="98.9179"
              x2="29.0935"
              y2="98.9179"
              gradientUnits="userSpaceOnUse"
            >
              <stop stop-color="#E4C99B">
</stop>
              <stop offset="0.5" stop-color="#E0BF85">
</stop>
              <stop offset="1" stop-color="#CF9E43">
</stop>
            </linearGradient>
            <linearGradient
              id="paint36_linear_1735_974"
              x1="36.4633"
              y1="95.7252"
              x2="19.5983"
              y2="95.7252"
              gradientUnits="userSpaceOnUse"
            >
              <stop stop-color="#E4C99B">
</stop>
              <stop offset="0.5" stop-color="#E0BF85">
</stop>
              <stop offset="1" stop-color="#CF9E43">
</stop>
            </linearGradient>
            <linearGradient
              id="paint37_linear_1735_974"
              x1="27.1086"
              y1="89.3231"
              x2="11.6165"
              y2="89.3231"
              gradientUnits="userSpaceOnUse"
            >
              <stop stop-color="#E4C99B">
</stop>
              <stop offset="0.5" stop-color="#E0BF85">
</stop>
              <stop offset="1" stop-color="#CF9E43">
</stop>
            </linearGradient>
            <linearGradient
              id="paint38_linear_1735_974"
              x1="18.9024"
              y1="80.6489"
              x2="5.51006"
              y2="80.6489"
              gradientUnits="userSpaceOnUse"
            >
              <stop stop-color="#E4C99B">
</stop>
              <stop offset="0.5" stop-color="#E0BF85">
</stop>
              <stop offset="1" stop-color="#CF9E43">
</stop>
            </linearGradient>
            <linearGradient
              id="paint39_linear_1735_974"
              x1="12.3212"
              y1="70.4255"
              x2="1.56696"
              y2="70.4255"
              gradientUnits="userSpaceOnUse"
            >
              <stop stop-color="#E4C99B">
</stop>
              <stop offset="0.5" stop-color="#E0BF85">
</stop>
              <stop offset="1" stop-color="#CF9E43">
</stop>
            </linearGradient>
            <linearGradient
              id="paint40_linear_1735_974"
              x1="7.76604"
              y1="59.1621"
              x2="-0.000202325"
              y2="59.1621"
              gradientUnits="userSpaceOnUse"
            >
              <stop stop-color="#E4C99B">
</stop>
              <stop offset="0.5" stop-color="#E0BF85">
</stop>
              <stop offset="1" stop-color="#CF9E43">
</stop>
            </linearGradient>
            <linearGradient
              id="paint41_linear_1735_974"
              x1="5.52843"
              y1="47.4694"
              x2="0.810806"
              y2="47.4694"
              gradientUnits="userSpaceOnUse"
            >
              <stop stop-color="#E4C99B">
</stop>
              <stop offset="0.5" stop-color="#E0BF85">
</stop>
              <stop offset="1" stop-color="#CF9E43">
</stop>
            </linearGradient>
            <linearGradient
              id="paint42_linear_1735_974"
              x1="5.81909"
              y1="35.9511"
              x2="3.42327"
              y2="35.9511"
              gradientUnits="userSpaceOnUse"
            >
              <stop stop-color="#E4C99B">
</stop>
              <stop offset="0.5" stop-color="#E0BF85">
</stop>
              <stop offset="1" stop-color="#CF9E43">
</stop>
            </linearGradient>
            <linearGradient
              id="paint43_linear_1735_974"
              x1="9.65564"
              y1="25.2478"
              x2="7.21944"
              y2="25.2478"
              gradientUnits="userSpaceOnUse"
            >
              <stop stop-color="#E4C99B">
</stop>
              <stop offset="0.5" stop-color="#E0BF85">
</stop>
              <stop offset="1" stop-color="#CF9E43">
</stop>
            </linearGradient>
            <linearGradient
              id="paint44_linear_1735_974"
              x1="16.345"
              y1="15.9181"
              x2="12.6705"
              y2="15.9181"
              gradientUnits="userSpaceOnUse"
            >
              <stop stop-color="#E4C99B">
</stop>
              <stop offset="0.5" stop-color="#E0BF85">
</stop>
              <stop offset="1" stop-color="#CF9E43">
</stop>
            </linearGradient>
            <linearGradient
              id="paint45_linear_1735_974"
              x1="24.87"
              y1="8.47359"
              x2="19.8495"
              y2="8.47359"
              gradientUnits="userSpaceOnUse"
            >
              <stop stop-color="#E4C99B">
</stop>
              <stop offset="0.5" stop-color="#E0BF85">
</stop>
              <stop offset="1" stop-color="#CF9E43">
</stop>
            </linearGradient>
            <linearGradient
              id="paint46_linear_1735_974"
              x1="34.4005"
              y1="3.31194"
              x2="28.4782"
              y2="3.31194"
              gradientUnits="userSpaceOnUse"
            >
              <stop stop-color="#E4C99B">
</stop>
              <stop offset="0.5" stop-color="#E0BF85">
</stop>
              <stop offset="1" stop-color="#CF9E43">
</stop>
            </linearGradient>
            <linearGradient
              id="paint47_linear_1735_974"
              x1="46.4236"
              y1="89.6185"
              x2="34.6868"
              y2="89.6185"
              gradientUnits="userSpaceOnUse"
            >
              <stop stop-color="#E4C99B">
</stop>
              <stop offset="0.5" stop-color="#E0BF85">
</stop>
              <stop offset="1" stop-color="#CF9E43">
</stop>
            </linearGradient>
            <linearGradient
              id="paint48_linear_1735_974"
              x1="36.8892"
              y1="87.1013"
              x2="27.9385"
              y2="87.1013"
              gradientUnits="userSpaceOnUse"
            >
              <stop stop-color="#E4C99B">
</stop>
              <stop offset="0.5" stop-color="#E0BF85">
</stop>
              <stop offset="1" stop-color="#CF9E43">
</stop>
            </linearGradient>
            <linearGradient
              id="paint49_linear_1735_974"
              x1="28.0345"
              y1="82.4069"
              x2="21.695"
              y2="82.4069"
              gradientUnits="userSpaceOnUse"
            >
              <stop stop-color="#E4C99B">
</stop>
              <stop offset="0.5" stop-color="#E0BF85">
</stop>
              <stop offset="1" stop-color="#CF9E43">
</stop>
            </linearGradient>
            <linearGradient
              id="paint50_linear_1735_974"
              x1="20.3965"
              y1="75.7898"
              x2="16.197"
              y2="75.7898"
              gradientUnits="userSpaceOnUse"
            >
              <stop stop-color="#E4C99B">
</stop>
              <stop offset="0.5" stop-color="#E0BF85">
</stop>
              <stop offset="1" stop-color="#CF9E43">
</stop>
            </linearGradient>
            <linearGradient
              id="paint51_linear_1735_974"
              x1="14.5542"
              y1="67.6232"
              x2="11.7613"
              y2="67.6232"
              gradientUnits="userSpaceOnUse"
            >
              <stop stop-color="#E4C99B">
</stop>
              <stop offset="0.5" stop-color="#E0BF85">
</stop>
              <stop offset="1" stop-color="#CF9E43">
</stop>
            </linearGradient>
            <linearGradient
              id="paint52_linear_1735_974"
              x1="12.3517"
              y1="58.3283"
              x2="8.65027"
              y2="58.3283"
              gradientUnits="userSpaceOnUse"
            >
              <stop stop-color="#E4C99B">
</stop>
              <stop offset="0.5" stop-color="#E0BF85">
</stop>
              <stop offset="1" stop-color="#CF9E43">
</stop>
            </linearGradient>
            <linearGradient
              id="paint53_linear_1735_974"
              x1="12.4054"
              y1="48.4386"
              x2="7.03498"
              y2="48.4386"
              gradientUnits="userSpaceOnUse"
            >
              <stop stop-color="#E4C99B">
</stop>
              <stop offset="0.5" stop-color="#E0BF85">
</stop>
              <stop offset="1" stop-color="#CF9E43">
</stop>
            </linearGradient>
            <linearGradient
              id="paint54_linear_1735_974"
              x1="14.2294"
              y1="38.5364"
              x2="7.28424"
              y2="38.5364"
              gradientUnits="userSpaceOnUse"
            >
              <stop stop-color="#E4C99B">
</stop>
              <stop offset="0.5" stop-color="#E0BF85">
</stop>
              <stop offset="1" stop-color="#CF9E43">
</stop>
            </linearGradient>
            <linearGradient
              id="paint55_linear_1735_974"
              x1="17.7826"
              y1="29.1685"
              x2="9.86162"
              y2="29.1685"
              gradientUnits="userSpaceOnUse"
            >
              <stop stop-color="#E4C99B">
</stop>
              <stop offset="0.5" stop-color="#E0BF85">
</stop>
              <stop offset="1" stop-color="#CF9E43">
</stop>
            </linearGradient>
            <linearGradient
              id="paint56_linear_1735_974"
              x1="22.8852"
              y1="20.7606"
              x2="14.6209"
              y2="20.7606"
              gradientUnits="userSpaceOnUse"
            >
              <stop stop-color="#E4C99B">
</stop>
              <stop offset="0.5" stop-color="#E0BF85">
</stop>
              <stop offset="1" stop-color="#CF9E43">
</stop>
            </linearGradient>
            <linearGradient
              id="paint57_linear_1735_974"
              x1="29.295"
              y1="13.7639"
              x2="21.2731"
              y2="13.7639"
              gradientUnits="userSpaceOnUse"
            >
              <stop stop-color="#E4C99B">
</stop>
              <stop offset="0.5" stop-color="#E0BF85">
</stop>
              <stop offset="1" stop-color="#CF9E43">
</stop>
            </linearGradient>
            <linearGradient
              id="paint58_linear_1735_974"
              x1="36.7171"
              y1="8.69504"
              x2="29.4085"
              y2="8.69504"
              gradientUnits="userSpaceOnUse"
            >
              <stop stop-color="#E4C99B">
</stop>
              <stop offset="0.5" stop-color="#E0BF85">
</stop>
              <stop offset="1" stop-color="#CF9E43">
</stop>
            </linearGradient>
            <linearGradient
              id="paint59_linear_1735_974"
              x1="46.424"
              y1="4.15881"
              x2="33.9132"
              y2="4.15881"
              gradientUnits="userSpaceOnUse"
            >
              <stop stop-color="#E4C99B">
</stop>
              <stop offset="0.5" stop-color="#E0BF85">
</stop>
              <stop offset="1" stop-color="#CF9E43">
</stop>
            </linearGradient>
            <linearGradient
              id="paint60_linear_1735_974"
              x1="54.2327"
              y1="98.2144"
              x2="81.0645"
              y2="98.2144"
              gradientUnits="userSpaceOnUse"
            >
              <stop stop-color="#E4C99B">
</stop>
              <stop offset="0.5" stop-color="#E0BF85">
</stop>
              <stop offset="1" stop-color="#CF9E43">
</stop>
            </linearGradient>
          </defs>
        </svg>