<svg xmlns="http://www.w3.org/2000/svg" width="176" height="48" fill="none" viewBox="0 0 176 48">
    <path fill="#fff" d="M0 0h176v48H0V0z"/>
    <path fill="#000" d="M74.456 30.717H69.97l-1.077 3.16h-1.9l4.249-11.694h1.974l4.248 11.695h-1.932l-1.076-3.161zm-4.021-1.459h3.555l-1.753-5.13h-.049l-1.753 5.13zm16.204.357c0 2.65-1.426 4.352-3.58 4.352-1.113.058-2.162-.522-2.7-1.492h-.04v4.223h-1.761V25.352h1.704v1.418h.033c.562-.964 1.611-1.544 2.732-1.508 2.177 0 3.612 1.71 3.612 4.353zm-1.81 0c0-1.726-.897-2.861-2.267-2.861-1.345 0-2.25 1.159-2.25 2.861 0 1.718.905 2.869 2.25 2.869 1.37 0 2.267-1.127 2.267-2.869zm11.253 0c0 2.65-1.427 4.352-3.58 4.352-1.113.058-2.162-.522-2.7-1.492h-.04v4.223H88V25.352h1.704v1.418h.033c.561-.964 1.611-1.544 2.731-1.508 2.178 0 3.613 1.71 3.613 4.353zm-1.81 0c0-1.726-.897-2.861-2.267-2.861-1.346 0-2.25 1.159-2.25 2.861 0 1.718.904 2.869 2.25 2.869 1.37 0 2.267-1.127 2.267-2.869zm8.051 1.004c.131 1.16 1.264 1.922 2.814 1.922 1.484 0 2.552-.762 2.552-1.808 0-.907-.644-1.45-2.169-1.823l-1.525-.365c-2.161-.52-3.164-1.523-3.164-3.153 0-2.018 1.769-3.404 4.282-3.404 2.486 0 4.191 1.386 4.248 3.404h-1.778c-.106-1.167-1.077-1.872-2.495-1.872-1.419 0-2.39.713-2.39 1.75 0 .827.62 1.314 2.137 1.686l1.296.317c2.415.567 3.418 1.53 3.418 3.241 0 2.188-1.754 3.559-4.543 3.559-2.61 0-4.372-1.339-4.485-3.454h1.802zm11.027-7.285v2.018h1.631v1.386h-1.631v4.7c0 .73.326 1.07 1.043 1.07.194-.003.388-.017.58-.04v1.377c-.323.06-.65.087-.978.081-1.737 0-2.415-.648-2.415-2.302v-4.886h-1.247v-1.386h1.247v-2.018h1.77zm2.576 6.281c0-2.683 1.59-4.368 4.069-4.368 2.488 0 4.07 1.685 4.07 4.368 0 2.69-1.574 4.369-4.07 4.369-2.495 0-4.069-1.679-4.069-4.369zm6.345 0c0-1.84-.849-2.926-2.276-2.926-1.427 0-2.275 1.094-2.275 2.926 0 1.848.848 2.926 2.275 2.926s2.276-1.078 2.276-2.926zm3.246-4.263h1.68v1.45h.04c.234-.933 1.096-1.576 2.064-1.54.203 0 .405.021.603.066v1.637c-.256-.078-.523-.114-.791-.106-.518-.021-1.019.184-1.372.561-.352.377-.522.889-.463 1.4v5.058h-1.761v-8.526zm12.507 6.021c-.237 1.548-1.754 2.61-3.694 2.61-2.496 0-4.045-1.661-4.045-4.327 0-2.675 1.557-4.41 3.971-4.41 2.373 0 3.866 1.621 3.866 4.206v.6h-6.06v.106c-.056.634.164 1.263.606 1.725.441.462 1.062.713 1.702.69.855.08 1.661-.408 1.982-1.2h1.672zm-5.953-2.544h4.289c.032-.57-.177-1.128-.576-1.54-.4-.41-.954-.637-1.528-.624-.58-.004-1.136.223-1.547.63-.41.406-.64.958-.638 1.534zM70.213 11.277c.748-.053 1.48.23 1.996.77.515.54.76 1.283.665 2.022 0 1.795-.976 2.827-2.66 2.827H68.17v-5.62h2.042zM69.05 16.1h1.066c.535.032 1.055-.177 1.417-.57.361-.391.526-.924.448-1.45.072-.525-.095-1.053-.456-1.442-.36-.39-.877-.597-1.409-.568H69.05v4.03zm4.817-1.327c-.073-.76.294-1.496.947-1.898.652-.403 1.478-.403 2.131 0 .653.402 1.02 1.138.947 1.898.074.76-.292 1.498-.946 1.901-.653.404-1.48.404-2.134 0-.653-.403-1.02-1.14-.945-1.901zm3.159 0c0-.92-.416-1.457-1.145-1.457-.732 0-1.144.538-1.144 1.457 0 .926.412 1.46 1.144 1.46.729 0 1.145-.537 1.145-1.46zm6.215 2.122h-.873l-.882-3.123h-.067l-.878 3.123h-.865l-1.176-4.24h.854l.764 3.235h.063l.877-3.236h.808l.878 3.236h.066l.761-3.236h.842l-1.172 4.241zm2.161-4.24h.811v.673h.063c.219-.496.73-.8 1.273-.756.42-.03.833.13 1.12.436.288.307.419.727.357 1.142v2.745h-.842V14.36c0-.682-.298-1.02-.92-1.02-.286-.014-.563.098-.759.304-.195.207-.29.488-.26.77v2.481H85.4v-4.24zM90.367 11h.842v5.896h-.842V11zm2.013 3.774c-.073-.76.294-1.496.946-1.898.653-.403 1.48-.403 2.132 0 .653.402 1.02 1.138.947 1.898.074.76-.292 1.498-.945 1.901-.654.404-1.481.404-2.135 0-.653-.403-1.02-1.14-.945-1.901zm3.158 0c0-.92-.415-1.457-1.144-1.457-.732 0-1.144.538-1.144 1.457 0 .926.412 1.46 1.144 1.46.729 0 1.144-.537 1.144-1.46zm1.754.923c0-.764.571-1.204 1.587-1.266l1.155-.066v-.366c0-.448-.298-.701-.873-.701-.47 0-.796.171-.89.471h-.815c.086-.728.776-1.195 1.744-1.195 1.069 0 1.673.529 1.673 1.425v2.897h-.811V16.3h-.066c-.276.435-.765.69-1.282.666-.362.037-.724-.08-.995-.321-.27-.242-.426-.586-.427-.948zm2.742-.363v-.354l-1.042.066c-.587.04-.854.238-.854.612 0 .381.333.603.791.603.272.028.542-.056.75-.23.209-.175.337-.426.355-.697zm1.946-.56c0-1.34.693-2.189 1.771-2.189.544-.025 1.054.265 1.308.744h.063V11h.842v5.896h-.807v-.67h-.066c-.274.475-.79.76-1.34.74-1.086 0-1.771-.849-1.771-2.192zm.87 0c0 .9.426 1.44 1.14 1.44.709 0 1.148-.548 1.148-1.436 0-.884-.443-1.441-1.148-1.441-.709 0-1.141.545-1.141 1.437h.001zm6.599 0c-.074-.76.293-1.496.946-1.898.653-.403 1.479-.403 2.132 0 .653.402 1.019 1.138.946 1.898.075.76-.292 1.498-.945 1.901-.654.404-1.481.404-2.134 0-.654-.403-1.02-1.14-.945-1.901zm3.158 0c0-.92-.416-1.457-1.145-1.457-.732 0-1.143.538-1.143 1.457 0 .926.411 1.46 1.143 1.46.73 0 1.145-.537 1.145-1.46zm1.996-2.119h.811v.674h.063c.219-.496.73-.8 1.273-.756.421-.03.833.13 1.12.436.287.307.419.727.357 1.142v2.745h-.842V14.36c0-.682-.298-1.02-.921-1.02-.285-.014-.562.098-.758.304-.196.207-.291.488-.261.77v2.481h-.842v-4.24zm8.382-1.055v1.075h.925v.705h-.925v2.18c0 .444.185.639.604.639.107 0 .214-.007.321-.02v.698c-.151.027-.304.04-.458.042-.937 0-1.31-.327-1.31-1.145V13.38h-.677v-.705h.677V11.6h.843zm2.075-.6h.835v2.337h.067c.229-.5.749-.804 1.301-.76.418-.022.824.142 1.109.447.284.306.416.722.36 1.134v2.738h-.843v-2.531c0-.678-.317-1.02-.912-1.02-.293-.025-.582.081-.789.288-.207.208-.312.495-.286.786v2.477h-.842V11zm8.583 4.751c-.237.8-1.016 1.317-1.849 1.227-.569.015-1.116-.22-1.496-.641-.379-.422-.553-.988-.476-1.548-.075-.562.098-1.129.475-1.554.378-.425.922-.666 1.493-.661 1.187 0 1.903.806 1.903 2.137v.292h-3.013v.047c-.026.315.082.626.298.857.216.232.521.362.839.358.412.05.813-.154 1.015-.514h.811zm-2.963-1.367h2.156c.021-.287-.081-.57-.281-.78-.2-.21-.48-.325-.77-.318-.294-.004-.577.11-.785.318-.208.206-.324.488-.32.78zM54.38 11.676H42.22c-2.33 0-4.22 1.89-4.22 4.22V28.04c0 2.33 1.89 4.22 4.22 4.22h12.146c2.33 0 4.22-1.89 4.22-4.22V15.895c.014-2.33-1.876-4.22-4.206-4.22zM44.344 27.543c-.19.323-.527.498-.879.498-.176 0-.337-.044-.498-.131-.484-.279-.645-.894-.366-1.378l.205-.337h2.33l-.792 1.348zM42.44 25.39c-.556 0-1.01-.455-1.01-1.011 0-.557.454-1.011 1.01-1.011h1.978l2.71-4.703-.732-1.275c-.278-.484-.117-1.099.367-1.377.483-.279 1.099-.118 1.377.366l.161.264.161-.264c.279-.484.894-.645 1.377-.366.235.131.396.351.47.615.072.264.029.527-.103.762l-3.458 5.992h2.183l1.157 2.008H42.44zm11.722 0h-.82l.658 1.142c.279.484.118 1.1-.366 1.378-.161.087-.322.131-.498.131-.088 0-.176-.014-.264-.029-.264-.073-.483-.234-.615-.469l-3.487-6.036 1.157-2.007 2.257 3.897h1.978c.556 0 1.01.454 1.01 1.01 0 .558-.454.983-1.01.983z"/>
</svg>