<svg xmlns="http://www.w3.org/2000/svg" width="176" height="48" fill="none" viewBox="0 0 176 48">
    <path fill="#fff" d="M0 0h176v48H0V0z"/>
    <path fill="#000" d="M88.046 25.559c-2.185.01-3.95 1.836-3.942 4.08.007 2.244 1.782 4.058 3.967 4.055 2.185-.004 3.954-1.824 3.955-4.068.015-1.087-.4-2.133-1.15-2.9-.75-.767-1.772-1.188-2.83-1.167zm0 6.537c-.985.07-1.912-.484-2.338-1.4-.425-.914-.263-2.003.41-2.745.672-.743 1.718-.988 2.637-.618.92.37 1.525 1.28 1.528 2.293.03.634-.19 1.255-.612 1.72-.42.464-1.007.735-1.625.75zm-8.677-6.537c-2.186.005-3.955 1.828-3.952 4.074.004 2.245 1.778 4.063 3.965 4.06 2.186 0 3.957-1.821 3.957-4.067.016-1.087-.4-2.133-1.15-2.9-.75-.767-1.77-1.188-2.83-1.167h.01zm0 6.537c-.985.074-1.915-.478-2.344-1.392-.428-.914-.269-2.005.403-2.749.672-.744 1.718-.991 2.639-.622.92.369 1.527 1.279 1.53 2.293.03.634-.19 1.255-.612 1.72-.42.464-1.007.735-1.625.75h.01zm-10.336-5.283v1.722h4.026c-.063.812-.391 1.577-.931 2.173-.815.852-1.942 1.31-3.104 1.263-2.47 0-4.474-2.057-4.474-4.594 0-2.537 2.003-4.594 4.474-4.594 1.135-.019 2.23.425 3.048 1.235l1.183-1.216c-1.114-1.158-2.637-1.803-4.222-1.79-2.256-.09-4.38 1.095-5.534 3.088s-1.154 4.475 0 6.468c1.154 1.993 3.278 3.178 5.534 3.088 1.614.075 3.18-.571 4.297-1.771.976-1.102 1.498-2.55 1.454-4.039.003-.363-.029-.725-.094-1.081l-5.657.047zm42.229 1.34c-.498-1.504-1.847-2.536-3.393-2.594-1.03-.002-2.015.434-2.722 1.204-.706.77-1.07 1.807-1.006 2.863-.022 1.081.384 2.125 1.125 2.892.742.767 1.756 1.192 2.808 1.176 1.325.007 2.564-.669 3.3-1.8l-1.352-.956c-.41.702-1.15 1.13-1.948 1.129-.826.032-1.587-.457-1.919-1.235l5.303-2.249-.196-.43zm-5.406 1.359c-.038-.599.16-1.187.549-1.634.389-.446.937-.713 1.52-.74.615-.042 1.194.297 1.473.861l-3.542 1.513zm-4.305 3.943h1.742V21.49h-1.742v11.964zm-2.852-6.987h-.066c-.53-.61-1.29-.958-2.087-.957-2.116.105-3.778 1.897-3.778 4.072s1.662 3.967 3.778 4.073c.8.013 1.564-.337 2.087-.957h.056v.583c0 1.56-.81 2.393-2.115 2.393-.89-.021-1.677-.592-1.995-1.445l-1.519.65c.585 1.462 1.975 2.412 3.514 2.403 2.04 0 3.728-1.235 3.728-4.24v-7.245h-1.603v.67zm-1.995 5.628c-1.246-.113-2.202-1.185-2.202-2.47 0-1.284.956-2.356 2.202-2.469.602.032 1.167.312 1.565.777.398.465.597 1.075.55 1.692.052.62-.146 1.235-.547 1.702-.402.466-.971.744-1.577.768h.01zm22.722-10.605h-4.166v11.964h1.743v-4.537h2.432c1.354.1 2.649-.585 3.356-1.775.706-1.19.706-2.686 0-3.876-.707-1.19-2.002-1.876-3.356-1.776h-.009zm0 5.743h-2.432v-4.078h2.469c1.105 0 2 .92 2 2.053 0 1.134-.895 2.053-2 2.053l-.037-.028zm10.746-1.723c-1.297-.08-2.516.638-3.104 1.828l1.548.66c.311-.59.933-.935 1.584-.88.447-.054.896.08 1.247.369.35.29.573.712.617 1.172v.124c-.56-.304-1.184-.462-1.817-.46-1.669 0-3.356.958-3.356 2.69.034.746.359 1.447.904 1.943.544.495 1.26.744 1.986.689.894.066 1.751-.374 2.236-1.148h.056v.957h1.678V28.85c0-2.096-1.547-3.311-3.532-3.311l-.047-.03zm-.214 6.556c-.569 0-1.361-.297-1.361-1.015 0-.957.988-1.273 1.864-1.273.554-.014 1.101.125 1.584.402-.12 1.072-.991 1.888-2.041 1.915l-.046-.03zm9.907-6.269l-1.995 5.187h-.056l-2.069-5.187h-1.864l3.104 7.255-1.771 4.029h1.818l4.771-11.284h-1.938zm-15.667 7.657h1.743V21.49h-1.743v11.964zM68.738 13.24c.032.71-.22 1.402-.7 1.915-.534.57-1.28.88-2.05.852-1.181-.01-2.242-.746-2.691-1.868-.45-1.122-.201-2.411.632-3.272.54-.567 1.286-.879 2.06-.861.393-.002.784.08 1.146.239.337.14.637.36.876.641l-.494.508c-.377-.461-.943-.713-1.529-.68-.588-.003-1.152.24-1.561.674-.41.433-.63 1.02-.61 1.623-.013.912.51 1.743 1.326 2.105.816.362 1.763.185 2.402-.45.287-.319.452-.733.466-1.167h-2.023v-.69h2.713c.024.143.037.287.037.432zm4.268-2.392H70.49v1.818h2.293v.69H70.49v1.818h2.516v.708h-3.262V10.14h3.262v.708zm3.057 5.034h-.717v-5.034H73.78v-.708h3.886v.708h-1.603v5.034zm4.343 0V10.14h.718v5.742h-.718zm3.905 0h-.717v-5.034h-1.566v-.708h3.84v.708H84.31v5.034zm8.836-.746c-1.135 1.158-2.967 1.158-4.101 0-1.1-1.195-1.1-3.064 0-4.26.542-.56 1.28-.876 2.05-.876.77 0 1.508.316 2.05.877 1.105 1.193 1.105 3.065 0 4.259zm-3.57-.479c.84.86 2.198.86 3.038 0 .826-.934.826-2.358 0-3.292-.84-.86-2.198-.86-3.038 0-.825.934-.825 2.358 0 3.292zm5.406 1.225V10.14h.876l2.721 4.47v-4.47h.718v5.742h-.746l-2.842-4.68v4.68h-.727zM37.351 13.345c-.5-.329-1.112-.423-1.675-.282l9.96 9.961 3.226-3.226-11.51-6.453zM34.438 13.863c-.281.376-.438.815-.438 1.3v17.729c0 .485.157.94.438 1.3l10.165-10.165-10.165-10.164zM53.06 22.144l-2.898-1.628-3.508 3.508 3.508 3.508 2.898-1.629c.689-.391 1.112-1.096 1.112-1.895 0-.799-.407-1.472-1.112-1.864zM45.636 25.063l-9.945 9.945c.157.03.33.062.501.062.407 0 .815-.11 1.175-.344l11.511-6.437-3.242-3.227z"/>
</svg>